<svg width="900" height="685" viewBox="0 0 900 685" fill="none" xmlns="http://www.w3.org/2000/svg">
<g clip-path="url(#clip0_1563_124)">
<path opacity="0.3" d="M450 677.056C698.528 677.056 900 665.295 900 650.787C900 636.279 698.528 624.518 450 624.518C201.472 624.518 0 636.279 0 650.787C0 665.295 201.472 677.056 450 677.056Z" fill="white"/>
<path d="M229.305 165.674L338.949 166.953L513.321 165.391L712.491 159.59L720.809 164.983L727.302 173.71L729.556 182.295L729.23 191.636L722.138 199.888L712.618 204.659L705.502 213.764L700.954 222.101L704.878 231.596L768.809 227.027L772.03 232.242L773.432 240.791L763.972 243.863L768.738 253.383L760.011 259.883L751.366 263.834L746.092 268.754L746.033 270.452L752.532 279.179L746.411 284.07L741.956 289.865L735.888 293.055L740.685 301.723L737.021 309.252L733.831 303.183L725.222 306.286L723.197 315.568L731.781 313.319L729.697 324.3L733.987 347.407L732.171 350.75L723.591 353L719.05 361.347L710.376 366.144L709.441 368.656L712.744 371.321L714.115 380.721L705.359 388.068L695.869 391.991L691.827 385.899L693.697 405.519L686.87 406.128L684.651 396.698L684.207 409.438L692.518 414.831L683.88 418.78L681.626 410.2L680.304 423.757L686.099 428.212L680.617 439.075L682.078 445.928L674.961 455.032L669.776 457.401L661.281 457.104L662.682 465.659L653.897 473.851L652.02 478.889L642.769 476.018L648.48 483.016L644.993 485.448L644.696 493.938L648.649 502.583L626.241 511.149L632.007 516.454L629.981 525.736L631.414 533.437L629.536 538.47L620.195 538.143L619.957 544.939L629.209 547.816L620.535 552.613L618.108 549.126L612.046 552.317L618.51 561.896L609.812 567.549L615.461 576.247L610.037 585.411L618.799 578.065L623.69 584.187L614.987 589.833L623.393 592.683L624.269 591.86L621.457 599.413L624.499 609.726L626.986 611.513L629.028 626.037L628.122 627.705L619.627 627.408L621.058 635.111L619.796 646.974L432.601 650.637L290.594 650.788L290.657 575.963L262.81 569.888L253.261 575.505L245.003 568.419L244.275 564.992L240.962 562.328L247.69 321.072L244.779 282.708L229.305 165.674Z" fill="#7BB059"/>
<path d="M486.276 528.539C388.885 477.644 355.677 424.9 345.109 389.084H407.663C407.304 394.723 405.644 400.202 402.815 405.092C401.458 407.344 400.724 409.915 400.687 412.543C400.651 415.171 401.313 417.762 402.607 420.05C403.9 422.338 405.779 424.242 408.05 425.565C410.32 426.889 412.902 427.586 415.531 427.584C418.159 427.582 420.74 426.881 423.009 425.555C425.278 424.228 427.153 422.321 428.444 420.032C429.734 417.742 430.393 415.15 430.352 412.522C430.312 409.893 429.574 407.323 428.214 405.074C425.39 400.188 423.734 394.716 423.376 389.084H486.28V447.36L487.433 447.258C493.049 446.749 498.486 445.024 503.368 442.204C505.296 441.035 507.499 440.399 509.753 440.362C512.007 440.325 514.23 440.888 516.195 441.993C518.16 443.098 519.795 444.706 520.934 446.651C522.073 448.597 522.674 450.81 522.676 453.064C522.678 455.318 522.08 457.532 520.945 459.48C519.809 461.427 518.176 463.037 516.214 464.146C514.251 465.254 512.028 465.821 509.775 465.787C507.521 465.754 505.316 465.122 503.387 463.957C498.5 461.13 493.056 459.402 487.433 458.891L486.28 458.789L486.276 528.539Z" fill="#143F66" stroke="white" stroke-width="3"/>
<path d="M488.401 461.126C493.306 461.714 498.038 463.298 502.308 465.783C504.559 467.139 507.13 467.873 509.757 467.909C512.385 467.946 514.976 467.283 517.263 465.99C519.551 464.696 521.454 462.818 522.777 460.547C524.101 458.277 524.797 455.696 524.795 453.067C524.794 450.439 524.093 447.859 522.767 445.59C521.44 443.322 519.534 441.446 517.245 440.156C514.955 438.866 512.364 438.207 509.736 438.247C507.108 438.287 504.538 439.025 502.289 440.384C498.025 442.863 493.299 444.444 488.401 445.029V389.088H562.472L562.506 388.06C562.748 380.827 560.951 373.671 557.319 367.411C556.15 365.484 555.515 363.28 555.478 361.026C555.441 358.772 556.004 356.549 557.109 354.585C558.214 352.62 559.822 350.984 561.767 349.845C563.712 348.707 565.926 348.105 568.18 348.103C570.434 348.102 572.648 348.699 574.595 349.835C576.543 350.97 578.153 352.603 579.261 354.566C580.37 356.529 580.936 358.751 580.903 361.005C580.87 363.259 580.238 365.463 579.073 367.393C575.434 373.659 573.633 380.823 573.876 388.065L573.91 389.093H629.568C618.997 424.906 585.789 477.65 488.401 528.548V461.126Z" fill="#A5D4C7" stroke="white" stroke-width="3"/>
<path d="M415.516 425.47C413.262 425.47 411.049 424.87 409.103 423.734C407.158 422.597 405.549 420.963 404.442 419C403.335 417.037 402.769 414.816 402.803 412.562C402.836 410.309 403.468 408.105 404.634 406.176C407.83 400.658 409.615 394.436 409.83 388.063L409.866 386.969H344.5C341.786 377.259 340.392 367.227 340.355 357.144C340.355 334.328 347.577 312.992 360.691 297.068C374.196 280.667 392.886 271.635 413.316 271.635C433.201 271.674 452.488 278.442 468.038 290.837C475.014 296.25 481.159 302.656 486.277 309.852V336.807C481.808 336.115 477.508 334.593 473.599 332.32C471.348 330.964 468.777 330.23 466.149 330.194C463.521 330.158 460.931 330.821 458.644 332.114C456.356 333.408 454.453 335.286 453.13 337.557C451.806 339.827 451.11 342.408 451.112 345.036C451.114 347.664 451.814 350.245 453.141 352.513C454.467 354.782 456.373 356.657 458.662 357.948C460.952 359.238 463.543 359.897 466.17 359.857C468.798 359.817 471.368 359.08 473.617 357.72C477.522 355.452 481.817 353.934 486.28 353.244V386.975H421.165L421.201 388.069C421.416 394.436 423.197 400.651 426.388 406.165C427.557 408.093 428.193 410.298 428.23 412.553C428.266 414.808 427.703 417.032 426.596 418.998C425.49 420.963 423.881 422.599 421.934 423.737C419.987 424.875 417.772 425.476 415.517 425.476L415.516 425.47Z" fill="#7BBAC0" stroke="white" stroke-width="3"/>
<path d="M575.969 386.969C575.934 380.477 577.633 374.093 580.891 368.478C582.247 366.227 582.981 363.656 583.017 361.028C583.053 358.4 582.391 355.81 581.097 353.522C579.804 351.235 577.926 349.332 575.655 348.008C573.385 346.685 570.804 345.989 568.176 345.99C565.548 345.992 562.967 346.692 560.699 348.019C558.43 349.345 556.554 351.251 555.264 353.54C553.974 355.829 553.315 358.42 553.354 361.048C553.394 363.676 554.132 366.246 555.491 368.495C558.743 374.106 560.439 380.484 560.402 386.969H488.396V350.824L487.207 350.969C482.032 351.596 477.039 353.271 472.532 355.89C470.605 357.059 468.401 357.695 466.147 357.732C463.893 357.768 461.67 357.205 459.706 356.1C457.741 354.995 456.105 353.387 454.967 351.442C453.828 349.496 453.227 347.283 453.225 345.029C453.223 342.775 453.821 340.561 454.957 338.614C456.092 336.666 457.725 335.056 459.688 333.948C461.651 332.839 463.873 332.273 466.127 332.306C468.381 332.34 470.586 332.972 472.515 334.137C477.027 336.762 482.026 338.44 487.207 339.069L488.396 339.214V309.85C493.512 302.654 499.655 296.247 506.631 290.835C522.18 278.439 541.467 271.671 561.352 271.633C581.783 271.633 600.471 280.665 613.977 297.066C627.09 312.991 634.307 334.328 634.307 357.142C634.271 367.225 632.876 377.256 630.162 386.967L575.969 386.969Z" fill="#9BC1F9" stroke="white" stroke-width="3"/>
<path d="M401.458 150.285C401.373 150.285 401.289 150.258 401.22 150.209C401.15 150.159 401.098 150.089 401.07 150.008C401.042 149.927 401.041 149.839 401.065 149.757C401.09 149.675 401.139 149.603 401.207 149.551C401.26 149.51 406.567 145.514 413.904 149.071C413.954 149.094 413.998 149.126 414.035 149.166C414.072 149.207 414.101 149.254 414.119 149.305C414.138 149.356 414.146 149.411 414.143 149.466C414.14 149.52 414.126 149.573 414.102 149.623C414.079 149.672 414.045 149.716 414.004 149.752C413.963 149.788 413.915 149.815 413.864 149.833C413.812 149.85 413.757 149.857 413.703 149.853C413.648 149.849 413.595 149.834 413.547 149.809C406.679 146.48 401.907 150.045 401.708 150.199C401.637 150.255 401.549 150.285 401.458 150.285Z" fill="#B75742"/>
<path d="M405.023 169.974C400.391 170.724 400.665 171.476 400.069 171.556C399.364 171.65 391.005 167.464 391.005 167.464C391.005 167.464 366.28 155.296 364.965 154.59L347.119 132.204L333.365 138.529C333.365 138.529 353.436 162.332 354.706 163.381C355.976 164.429 391.431 176.823 394.515 178.018C394.515 178.018 397.623 180.851 399.635 182.562C401.648 184.273 404.336 184.951 404.978 185.341C406.705 186.207 408.536 186.847 410.426 187.246C413.127 187.831 410.876 186.002 410.876 186.002C410.876 186.002 406.097 183.991 406.332 183.626C406.513 183.346 409.053 184.605 412.035 185.286C412.802 185.46 413.559 185.628 414.256 185.78C416.083 186.174 416.889 185.13 415.055 184.41C414.224 184.07 413.368 183.794 412.496 183.583C411.688 183.343 410.902 183.035 410.146 182.661C409.321 182.394 408.514 182.071 407.732 181.696C407.805 181.633 407.604 181.319 408.425 181.478C409.888 181.968 411.374 182.382 412.879 182.72C413.717 182.815 415.449 183.121 415.449 183.121C415.449 183.121 418.516 183.414 418.533 182.985C418.579 182.049 416.689 181.526 415.53 181.549C414.701 181.242 413.841 181.027 412.965 180.908C412.965 180.908 409.407 179.508 409.614 178.983C409.696 178.773 411.85 179.098 414.136 179.252C416.551 179.417 418.301 179.416 418.43 178.95C418.635 178.21 416.717 177.93 416.717 177.93C416.717 177.93 415.021 177.684 414.466 177.557C413.815 177.41 411.905 176.812 411.905 176.812C411.905 176.812 405.362 174.414 405.598 173.934C405.835 173.454 406.915 172.449 407.377 172.449C407.838 172.449 408.663 172.906 409.125 172.914C409.588 172.922 410.579 172.827 410.648 172.248C410.716 171.669 408.154 170.47 408.154 170.47C407.16 170.076 406.09 169.907 405.023 169.974Z" fill="#B75742"/>
<path d="M359.543 146.068C359.543 146.068 355.089 150.101 353.239 151.429C351.699 152.533 344.196 156.136 344.196 156.136C344.196 156.136 336.734 144.74 333.469 139.026C329.51 132.092 326.769 121.78 327.704 121.502C330.825 120.438 334.224 120.531 337.282 121.766C348.833 127.048 359.543 146.068 359.543 146.068Z" fill="#343333"/>
<path d="M400.699 175.929C402.68 176.241 404.706 175.867 405.584 174.057C405.781 176.202 402.52 177.267 400.699 175.929Z" fill="#FE875E"/>
<path d="M286.672 319.861C286.672 319.861 286.178 328.586 286.175 328.604C285.993 329.712 285.278 332.448 285.278 333.456C285.278 337.238 302.111 330.244 298.339 328.567C297.996 328.415 296.209 327.268 296.097 325.98C295.923 323.996 295.484 319.984 295.484 319.984L286.672 319.861Z" fill="#B75742"/>
<path d="M298.292 328.532C296.326 329.114 294.331 329.597 292.316 329.978C290.291 330.267 287.623 327.831 286.192 328.493C284.617 329.217 284.678 335.736 284.678 335.736C284.678 335.736 305.871 337.592 311.829 335.672C314.194 334.91 306.371 331.227 298.292 328.532Z" fill="#184655"/>
<path d="M259.615 319.335C259.615 319.335 259.121 328.06 259.118 328.079C258.936 329.186 258.221 331.923 258.221 332.93C258.221 336.714 275.054 329.719 271.281 328.043C270.939 327.891 268.62 325.887 268.508 324.598C268.335 322.615 268.427 319.459 268.427 319.459L259.615 319.335Z" fill="#B75742"/>
<path d="M271.238 328.007C269.272 328.589 267.278 329.072 265.263 329.452C263.239 329.741 260.57 327.305 259.138 327.968C257.562 328.692 257.5 335.211 257.5 335.211C257.5 335.211 278.541 336.072 284.776 335.147C287.23 334.781 279.318 330.702 271.238 328.007Z" fill="#184655"/>
<path d="M263.425 181.711C263.425 181.711 260.569 196.429 261.734 207.589C262.899 218.749 262.991 258.394 262.991 258.394L258.555 321.824L269.081 322.069C269.081 322.069 281.562 258.669 281.33 260.295C281.098 261.922 285.515 215.655 285.515 215.655L270.635 180.315L263.425 181.711Z" fill="#184655"/>
<path d="M267.416 172.205C267.416 172.205 254.493 185.778 259.3 200.604C261.231 206.559 279.241 263.448 279.474 268.098C279.707 272.749 285.565 324.145 285.565 324.145L297.806 323.777L300.453 266.634L296.949 189.646L289.525 176.661L267.416 172.205Z" fill="#355389"/>
<path d="M345.877 128.183C341.645 123.475 332.434 116.618 332.434 116.618C332.434 116.618 326.952 111.945 324.71 111.175C321.418 110.043 315.778 107.025 307.622 119.35C301.785 128.171 264.953 173.844 258.907 175.381L298.389 194.216C299.47 185.22 318.984 168.226 321.793 165.054C328.07 157.968 349.883 132.637 345.877 128.183Z" fill="#343333"/>
<path d="M344.035 108.891L331.737 116.07C331.737 116.07 331.394 126.538 335.411 129.257C338.784 131.542 341.35 126.059 341.35 126.059C341.35 126.059 345.919 119.74 349.398 117.771C352.877 115.802 344.035 108.891 344.035 108.891Z" fill="#B75742"/>
<path d="M350.44 90.8988C350.234 90.6441 340.123 103.193 341.371 109.079C342.618 114.966 348.729 120.337 352.977 118.86C357.676 117.226 366.412 102.453 363.279 95.28C360.146 88.1074 350.44 90.8988 350.44 90.8988Z" fill="#B75742"/>
<path d="M361.512 86.9402C358.899 85.5856 356.01 84.8501 353.068 84.7907C350.125 84.7313 347.209 85.3495 344.543 86.5975C337.94 90.0456 336.434 98.7213 338.503 104.013C340.571 109.304 338.202 112.296 338.202 112.296L341.705 110.256C342.827 108.509 343.612 106.568 344.019 104.532C344.286 101.993 348.001 102.443 349.813 101.292C351.21 100.406 352.991 97.5232 355.25 96.0304C355.25 96.0304 360.938 95.3349 363.733 96.8996C368.501 99.5676 367.824 90.442 361.512 86.9402Z" fill="#343333"/>
<path d="M381.038 188.453C379.241 188.154 377.417 188.058 375.598 188.166C374.869 188.059 367.36 181.616 367.36 181.616C367.36 181.616 345.107 162.771 343.941 161.711L331.727 134.734L315.608 137.127C315.608 137.127 330.631 168.842 331.682 170.223C332.733 171.604 365.743 190.848 368.588 192.885C368.588 192.885 371.101 196.523 372.754 198.758C374.408 200.994 376.969 202.413 377.531 202.977C379.08 204.309 380.783 205.449 382.603 206.375C385.197 207.711 383.328 205.291 383.328 205.291C383.328 205.291 378.952 201.979 379.268 201.692C379.511 201.471 381.797 203.416 384.652 204.922C385.386 205.31 386.112 205.69 386.782 206.034C388.54 206.936 389.577 206.148 387.884 204.919C387.122 204.354 386.32 203.843 385.486 203.39C384.722 202.927 383.997 202.405 383.316 201.828C382.566 201.353 381.848 200.829 381.167 200.259C381.255 200.218 381.053 199.802 381.84 200.189C382.792 200.657 384.603 202.081 386.053 202.661C386.876 202.99 388.555 203.779 388.555 203.779C389.405 203.911 390.266 203.97 391.127 203.953C391.633 203.18 390.157 202.582 388.984 202.273C388.218 201.74 387.399 201.287 386.54 200.922C386.54 200.922 383.261 198.55 383.584 198.098C383.707 197.925 385.64 199.24 388.003 200.124C390.711 201.135 392.01 200.581 392.251 200.152C392.618 199.489 390.965 199.083 390.965 199.083C390.015 198.864 389.079 198.586 388.163 198.252C387.539 197.923 380.291 192.446 380.635 192.044C380.979 191.642 382.095 191.638 382.56 191.772C383.025 191.906 383.846 192.238 384.309 192.37C384.622 192.378 384.929 192.291 385.192 192.122C385.454 191.953 385.66 191.709 385.783 191.421C385.978 190.878 384.242 189.89 384.242 189.89C383.276 189.21 382.188 188.722 381.038 188.453Z" fill="#B75742"/>
<path d="M318.169 150.238C318.169 150.238 322.806 148.767 325.782 147.409C327.774 146.495 336.463 142.187 336.463 142.187C336.463 142.187 332.717 126.426 330.181 120.762C320.886 99.9684 310.324 114.308 308.891 117.652C305.685 125.13 318.169 150.238 318.169 150.238Z" fill="#343333"/>
<path d="M627.068 634.305C627.068 634.305 623.99 637.348 623.921 638.465C623.851 639.582 623.648 651.551 624.904 652.667C626.16 653.783 629.852 654.576 628.664 655.833C627.766 656.782 620.869 656.579 616.297 656.324C614.962 656.25 613.289 645.455 612.756 643.875C611.989 641.57 609.223 636.556 609.92 634.95C610.263 634.168 612.787 632.385 615.08 630.883C616.922 629.457 618.517 627.736 619.798 625.789L627.068 634.305Z" fill="#F7CC7F"/>
<path d="M668.239 641.782C668.239 641.782 665.485 649.663 665.482 649.687C665.277 650.936 664.47 654.027 664.47 655.159C664.47 659.426 683.455 651.537 679.203 649.646C678.261 648.912 677.643 647.839 677.482 646.656C677.288 644.418 679.081 641.611 679.081 641.611L668.239 641.782Z" fill="#F7CC7F"/>
<path d="M694.432 492.058L701.304 509.857C701.304 509.857 705.788 552.337 703.179 577.767C702.086 588.401 678.444 645.332 678.444 645.332L666.7 643.654L682.44 576.239L676.652 550.457L668.461 499.498L694.432 492.058Z" fill="#1B4E0F"/>
<path d="M662.059 492.982L656.162 512.802L647.193 572.625L616.863 628.589C616.863 628.589 621.424 635.591 626.321 636.693L669.369 580.133L692.7 509.328L691.88 493.597L662.059 492.982Z" fill="#1B4E0F"/>
<path d="M752.58 459.984C749.05 461.583 749.411 462.247 748.954 462.437C748.413 462.665 740.98 460.299 740.98 460.299C740.98 460.299 719.041 453.512 717.865 453.095L699.428 435.296L689.727 443.938C689.727 443.938 710.198 462.65 711.407 463.401C712.615 464.151 743.108 469.092 745.785 469.634C745.785 469.634 748.792 471.723 750.715 472.959C752.209 473.748 753.819 474.291 755.485 474.568C756.999 475.053 758.578 475.309 760.168 475.328C762.423 475.365 760.282 474.061 760.282 474.061C760.282 474.061 756.106 473.073 756.223 472.684C756.313 472.382 758.569 473.088 761.064 473.16C761.706 473.178 762.339 473.193 762.92 473.202C764.447 473.225 764.886 472.081 763.288 471.744C762.568 471.582 761.836 471.485 761.099 471.452C760.407 471.379 759.724 471.238 759.06 471.03C758.349 470.932 757.647 470.78 756.959 470.573C757.006 470.499 756.787 470.24 757.468 470.231C758.716 470.414 759.975 470.522 761.237 470.554C761.922 470.483 763.352 470.44 763.352 470.44C764.145 470.335 764.925 470.152 765.682 469.894C765.759 468.995 764.035 468.686 763.119 468.932C762.408 468.8 761.682 468.762 760.961 468.818C760.961 468.818 757.872 468.174 757.935 467.637C757.987 467.196 765.617 466.987 765.642 466.079C765.664 465.338 763.364 465.273 763.364 465.273C763.364 465.273 761.972 465.365 761.507 465.353C760.962 465.337 759.337 465.139 759.337 465.139C759.337 465.139 753.688 464.124 753.783 463.621C753.878 463.119 754.543 461.955 754.909 461.869C755.276 461.783 756.018 462.06 756.385 461.973C756.615 461.889 756.811 461.732 756.942 461.525C757.073 461.319 757.133 461.075 757.111 460.831C757.055 460.269 755.148 459.849 755.148 459.849C754.295 459.67 753.41 459.717 752.58 459.984Z" fill="#F8A492"/>
<path d="M706.059 439.816L696.831 452.352C696.831 452.352 688.674 442.574 685.007 437.664C680.552 431.705 675.68 423.46 676.402 423.016C678.439 421.76 680.97 420.429 683.94 421.203C694.235 423.878 706.059 439.816 706.059 439.816Z" fill="#96CFF1"/>
<path d="M615.233 630.803C615.233 630.803 621.715 650.653 624.491 651.63C625.229 651.89 629.377 652.941 630.043 654.526C630.061 654.572 630.076 654.619 630.086 654.668C630.127 654.907 630.115 655.153 630.051 655.387C629.986 655.622 629.871 655.839 629.713 656.023C629.554 656.208 629.357 656.355 629.136 656.455C628.914 656.554 628.673 656.604 628.43 656.599H615.26C615.26 656.599 613.389 647.68 612.651 643.762C612.651 643.762 608.737 634.186 609.172 633.316C609.608 632.445 615.233 630.803 615.233 630.803Z" fill="#184655"/>
<path d="M663.39 656.568L665.509 649.608C665.509 649.608 670.13 651.566 672.413 651.239C674.685 650.81 676.934 650.265 679.151 649.608C688.263 652.648 695.728 654.123 694.369 656.568H663.39Z" fill="#184655"/>
<path d="M749.765 466.059C750.592 466.057 751.403 465.829 752.112 465.401C752.82 464.974 753.399 464.361 753.786 463.63C753.755 464.09 753.613 464.536 753.373 464.929C753.133 465.323 752.802 465.652 752.407 465.891C752.013 466.129 751.566 466.269 751.106 466.298C750.646 466.328 750.186 466.246 749.765 466.059Z" fill="#FE875E"/>
<path d="M664.415 420.825C664.415 420.825 653.401 421.99 649.716 423.28C646.64 424.357 642.473 434.413 642.473 434.413C642.473 434.413 659.165 482.665 658.51 491.292C657.856 499.918 655.998 512.695 655.998 512.695C655.998 512.695 688.868 514.77 701.318 509.856C701.318 509.856 697.385 490.308 697.385 485.177C697.385 480.045 695.177 428.741 693.606 426.055C692.034 423.369 688.867 421.838 682.861 420.528C676.854 419.218 664.415 420.825 664.415 420.825Z" fill="#343433"/>
<path d="M666.607 406.468L664.414 420.825C664.414 420.825 671.009 428.43 675.79 426.948C679.801 425.705 678.747 420.068 678.747 420.068C678.747 420.068 676.56 411.944 677.216 407.879C677.873 403.814 666.607 406.468 666.607 406.468Z" fill="#F7CC7F"/>
<path d="M677.212 407.879C677.867 403.814 666.602 406.468 666.602 406.468L666.421 407.658C666.705 408.392 667.119 409.07 667.642 409.659C670.255 412.316 673.77 413.896 677.493 414.087C677.106 412.041 677.011 409.951 677.212 407.879Z" fill="#F7CC7F"/>
<path d="M664.759 386.155C664.44 386.041 662.208 402.507 666.446 407.038C670.684 411.568 678.944 413.052 681.906 409.483C685.183 405.536 685.017 387.837 678.428 383.176C671.839 378.515 664.759 386.155 664.759 386.155Z" fill="#F7CC7F"/>
<path d="M675.917 374.37C672.232 375.154 668.878 377.054 666.312 379.812C663.999 380.084 660.855 381.353 657.609 386.693C653.611 393.258 656.565 400.531 661.212 404.099C665.86 407.667 665.796 411.78 665.796 411.78L666.529 409.658C667.083 408.044 667.281 406.33 667.11 404.632C667.023 403.592 666.769 402.572 666.359 401.612C665.242 399.229 668.757 397.647 669.746 395.663C670.505 394.136 670.546 390.643 671.739 388.125L673.169 386.198C673.169 386.198 676.467 383.649 679.693 384.371C682.92 385.093 682.448 373.044 675.917 374.37Z" fill="#13375B"/>
<path d="M669.528 398.594C669.561 400.604 668.642 402.249 667.472 402.268C666.303 402.287 665.331 400.676 665.302 398.666C665.274 396.656 666.189 395.011 667.358 394.992C668.528 394.972 669.495 396.587 669.528 398.594Z" fill="#F7CC7F"/>
<path d="M750.77 490.523H684.429V432.973H750.77V490.523Z" fill="#9A6B42"/>
<path d="M783.26 490.523H725.711V432.973H783.26V490.523Z" fill="#B27D38"/>
<path d="M724.586 489.306C721.198 488.324 682.404 478.385 680.94 477.428C679.477 476.471 655.517 454.081 655.517 454.081L669.242 446.819L690.694 467.949C692.159 468.563 719.634 479.012 719.634 479.012C719.634 479.012 728.032 482.439 728.763 482.295C730.683 481.541 732.666 480.959 734.689 480.554C735.812 480.415 736.952 480.508 738.037 480.83C738.037 480.83 740.448 481.565 740.443 482.149C740.413 482.425 740.286 482.681 740.086 482.874C739.886 483.066 739.625 483.183 739.348 483.203C738.861 483.231 737.937 482.831 737.452 482.86C736.967 482.89 735.948 483.97 735.757 484.467C735.643 484.769 742.437 489.734 742.77 490.406C742.925 490.563 751.075 490.008 750.74 490.527C750.74 491.364 749.769 491.122 749.763 491.24C749.637 493.471 738.094 495.129 737.304 494.906C735.988 494.529 724.586 489.306 724.586 489.306Z" fill="#F7CC7F"/>
<path d="M662.906 464.38L678.629 454.088C678.629 454.088 660.418 426.472 654.203 423.621C649.923 421.658 644.595 424.62 642.508 431.879C640.244 439.76 662.906 464.38 662.906 464.38Z" fill="#343433"/>
<path d="M629.773 48.7964C627.396 52.835 623.148 52.6717 618.597 53.8046C615.54 54.5653 613.66 59.5952 613.952 63.3985C614.693 73.0359 607.142 71.4003 601.063 75.3909C586.505 84.946 595.897 109.883 611.799 111.489C615.118 111.863 618.472 111.242 621.438 109.706C623.7 108.435 625.306 106.806 627.869 105.9C633.237 104.001 639.202 103.342 643.486 99.2215C649.618 93.3224 644.538 90.4397 646.12 86.1475C647.702 81.8554 654.52 84.0049 655.818 75.11C657.222 65.4875 655.684 57.1933 652.136 52.4135C646.262 44.5065 635.945 43.9674 632.184 46.3671C631.198 46.9727 630.371 47.8057 629.773 48.7964Z" fill="#F47458"/>
<path d="M696.591 66.8523C696.027 65.6565 690.995 69.196 689.874 68.5221C688.754 67.8482 694.386 62.1753 693.811 61.1839C692.755 59.3565 687.267 67.0179 686.73 66.2093C686.193 65.4007 691.46 57.2207 689.579 56.7719C687.698 56.323 685 65.8221 684.034 65.2111C683.067 64.6 687.338 56.6028 685.518 54.9707C684.545 54.0993 679.955 69.566 678.29 70.2079C676.625 70.8498 674.749 64.0975 673.183 64.3636C671.617 64.6297 678.323 76.782 677.994 77.7266C677.665 78.6711 671.525 98.5134 667.901 104.508C665.72 103.466 663.595 102.417 661.57 101.394C660.756 105.997 660.667 110.84 659.598 115.358C666.63 118.448 672.906 120.691 674.948 119.939C681.168 117.654 684.236 87.4575 685.234 81.8245C686.232 76.1915 688.889 75.0859 690.407 72.1164C691.925 69.1469 697.157 68.0481 696.591 66.8523Z" fill="#F48C7F"/>
<path d="M644.584 92.2773L634.174 102.777C634.174 102.777 647.926 110.235 659.591 115.36C660.661 110.843 660.749 105.994 661.563 101.396C651.926 96.5318 644.584 92.2773 644.584 92.2773Z" fill="#F7CC7F"/>
<path d="M709.519 208.884C712.596 212.539 715.352 216.451 717.757 220.579C717.93 220.912 717.998 222.832 718.17 223.183C725.275 227.858 732.804 226.561 738.983 224.636C734.915 222.874 729.25 220.835 728.719 219.983C725.323 215.242 722.403 210.179 720.002 204.865C716.819 208.038 713.819 207.674 709.519 208.884Z" fill="#F7A491"/>
<path d="M717.833 220.838C717.211 223.675 717.459 229.434 718.023 229.561C718.696 229.711 742.552 233.235 745.607 230.173C747.444 228.33 743.977 226.914 738.983 224.637C732.805 226.565 718.062 222.764 717.833 220.838Z" fill="#F47458"/>
<path d="M711.544 230.409C714.622 234.063 717.378 237.975 719.783 242.102C719.958 242.436 720.025 244.356 720.196 244.706C727.303 249.381 734.83 248.085 741.01 246.159C736.941 244.398 731.275 242.358 730.745 241.506C727.35 236.766 724.431 231.702 722.029 226.389C718.846 229.558 715.843 229.193 711.544 230.409Z" fill="#F7A491"/>
<path d="M719.855 242.36C719.235 245.197 719.483 250.956 720.046 251.083C720.72 251.234 744.576 254.757 747.63 251.695C749.466 249.853 746 248.436 741.005 246.159C734.824 248.085 720.091 244.284 719.855 242.36Z" fill="#F47458"/>
<path d="M723.205 208.638L710.801 212.934L644.019 157.531C644.019 157.531 660.316 157.323 689.521 160.306C698.255 161.202 723.205 208.638 723.205 208.638Z" fill="#055988"/>
<path d="M618.947 152.936C618.04 155.277 617.367 157.702 616.94 160.176C616.212 168.438 620.48 178.935 625.082 180.541C629.8 182.188 658.784 190.276 676.243 187.814L714.081 238.254L726.696 232.716L697.146 180.815C697.146 180.815 691.45 171.878 686.767 169.777C682.085 167.675 644.019 157.53 644.019 157.53L638.127 148.964L618.947 152.936Z" fill="#3A77B5"/>
<path d="M649.716 100.645C648.421 98.2596 647.003 95.9433 645.468 93.705C643.298 89.8355 637.694 87.8801 637.694 87.8801C637.694 87.8801 635.819 87.9189 633.667 88.0252C633.591 88.2937 633.452 88.5399 633.26 88.7424C632.451 89.3512 627.814 88.5654 624.82 90.6052C614.781 99.2386 617.558 141.087 618.347 154.303L642.733 155.2C642.733 155.2 645.064 126.154 651.275 118.848C655.604 113.757 652.819 106.384 649.716 100.645Z" fill="#FAE0B2"/>
<path d="M635.931 73.7222C635.931 73.7222 634.251 85.7637 633.076 88.6899C631.901 91.616 639.53 97.8738 645.876 99.7686C652.222 101.663 643.934 93.3052 644.199 90.1746C644.464 87.0441 645.615 72.2363 645.615 72.2363L635.931 73.7222Z" fill="#F7A491"/>
<path d="M645.301 76.4862L645.621 72.2386L635.936 73.7177C635.936 73.7177 635.691 75.1328 635.422 77.1327C639.349 79.4227 642.879 78.702 645.301 76.4862Z" fill="#F47458"/>
<path d="M638.974 51.7282C636.448 52.4347 634.259 54.0206 632.8 56.1997C630.442 59.8088 628.825 70.4341 636.588 75.3943C644.351 80.3546 650.39 73.3385 650.49 66.4948C650.591 59.6512 649.129 50.521 638.974 51.7282Z" fill="#F7A491"/>
<path d="M652.265 64.3545C651.602 66.006 650.289 67.0305 649.329 66.6388C648.37 66.247 648.131 64.5989 648.794 62.9474C649.456 61.2959 650.771 60.2714 651.729 60.6631C652.687 61.0549 652.928 62.7041 652.265 64.3545Z" fill="#F7A491"/>
<path d="M632.674 65.7125C633.238 67.4908 632.722 69.2428 631.524 69.6243C630.326 70.0058 628.897 68.8739 628.335 67.0945C627.773 65.315 628.287 63.5641 629.485 63.1827C630.683 62.8012 632.111 63.9331 632.674 65.7125Z" fill="#F7A491"/>
<path d="M664.83 105.214C664.83 105.214 667.441 105.285 668.185 105.214C672.466 104.803 670.688 111.129 670.688 111.129C670.688 111.129 668.598 109.08 667.758 109.08C667.086 109.104 666.416 109.181 665.755 109.309L664.83 105.214Z" fill="#13375B"/>
<path d="M679.333 147.477C679.333 147.477 681.096 150.218 683.076 148.984C685.055 147.751 688.472 145.364 689.111 147.163C689.749 148.961 689.623 150.458 688.93 150.817C688.238 151.177 683.127 153.956 680.364 154.143C677.602 154.331 675.298 151.707 675.298 151.707L679.333 147.477Z" fill="#B75742"/>
<path d="M683.464 153.676C683.433 151.367 682.85 149.099 681.763 147.062C678.734 141.825 665.947 127.709 664.046 126.618C662.146 125.527 663.514 121.268 663.514 121.268L655.933 117.175L651.984 115.039C651.984 115.039 643.032 128.704 642.347 129.994C641.662 131.283 642.877 135.507 641.969 138.103C641.08 140.699 642.004 154.803 640.721 156.352C639.717 157.355 638.779 157.494 638.472 158.101C638.353 158.281 638.294 158.493 638.303 158.709C638.311 158.924 638.388 159.131 638.521 159.301C639.549 160.621 644.795 159.513 644.795 159.513C644.833 159.432 646.994 156.394 646.657 154.589C646.315 152.84 647.392 142.318 648.116 142.318C648.753 142.318 651.776 147 652.982 147.884V147.892C653.076 147.974 653.19 148.027 653.313 148.045C654.182 148.045 659.782 149.278 661.015 150.51C661.409 151.219 661.572 152.033 661.482 152.839C661.498 153.58 661.458 154.418 661.393 155.272C661.273 156.835 661.05 158.439 660.902 159.498C662.231 159.508 663.568 159.51 664.899 159.498C665.527 158.452 666.421 157.593 667.49 157.006C668.558 156.419 669.764 156.126 670.982 156.157C672.134 156.132 673.274 156.393 674.3 156.917C675.327 157.441 676.207 158.211 676.862 159.158C679.098 159.038 679.964 160.129 681.882 159.946C681.987 159.278 683.496 154.53 683.464 153.676Z" fill="#F47458"/>
<path d="M665.593 105.829C665.175 105.432 664.671 105.138 664.12 104.969C663.569 104.799 662.987 104.759 662.418 104.851C661.5 104.979 660.57 104.994 659.648 104.894C656.865 104.641 654.007 104.869 652.212 106.665C650.416 108.46 650.188 114.865 652.212 117.873C654.236 120.88 659.952 121.642 660.458 123.005C660.964 124.369 665.921 125.028 666.626 123.359C666.823 123.472 667.042 123.542 667.268 123.566C667.495 123.59 667.723 123.567 667.94 123.499C669.795 122.974 670.471 121.132 669.814 119.159C669.158 117.185 666.374 113.138 666.88 109.496C666.985 108.826 666.923 108.14 666.698 107.5C666.474 106.86 666.094 106.286 665.593 105.829Z" fill="#B75742"/>
<path d="M664.428 118.153C664.273 118.315 664.184 118.528 664.178 118.752C664.172 118.976 664.251 119.194 664.397 119.363C665.076 120.203 665.865 120.948 666.742 121.578C667.843 122.209 668.891 119.535 668.891 118.339C668.892 117.193 666.369 116.163 664.428 118.153Z" fill="#184655"/>
<path d="M663.294 137.353C663.288 137.215 663.256 137.079 663.197 136.954C663.139 136.829 663.056 136.717 662.954 136.624C662.851 136.531 662.732 136.46 662.601 136.414C662.471 136.368 662.333 136.349 662.195 136.357H662.176C661.482 136.408 660.807 136.602 660.193 136.928C659.578 137.253 659.038 137.702 658.606 138.247C658.174 138.792 657.86 139.421 657.684 140.093C657.507 140.766 657.472 141.468 657.581 142.154C657.603 142.296 657.601 142.44 657.574 142.581C657.033 143.968 656.392 145.313 655.655 146.606L660.962 147.932C662.259 145.686 663.544 143.592 663.544 143.592L663.294 137.353Z" fill="#B75742"/>
<path d="M653.223 151.082C653.223 151.082 651.217 157.096 650.643 159.394C652.261 160.326 653.242 158.497 656.915 159.508C657.012 158.786 658.307 154.326 658.307 153.232C658.307 152.696 659.938 150.189 661.235 147.978C661.257 147.939 661.27 147.896 661.274 147.852C661.277 147.807 661.27 147.763 661.253 147.722C661.237 147.68 661.211 147.643 661.178 147.614C661.145 147.584 661.105 147.562 661.062 147.55C659.455 147.103 657.418 146.28 655.809 145.836C655.711 145.809 655.607 145.815 655.514 145.856C655.42 145.896 655.344 145.967 655.297 146.057C654.509 147.691 653.817 149.369 653.223 151.082Z" fill="#B75742"/>
<path d="M649.154 158.804C649.476 158.219 649.954 157.735 650.535 157.405C651.115 157.075 651.776 156.913 652.443 156.936C654.167 156.936 656.915 159.507 656.915 159.507C656.024 160.134 654.937 160.418 653.854 160.306C651.609 160.304 648.381 160.476 649.154 158.804Z" fill="#B75742"/>
<path d="M659.284 158.442C659.605 157.857 660.083 157.372 660.664 157.042C661.244 156.712 661.905 156.55 662.573 156.574C663.354 156.656 664.101 156.937 664.743 157.388C664.997 157.544 665.194 157.778 665.304 158.055C665.414 158.332 665.431 158.638 665.353 158.926C665.275 159.214 665.105 159.468 664.87 159.651C664.634 159.835 664.346 159.937 664.047 159.942H663.981C661.737 159.941 658.508 160.114 659.284 158.442Z" fill="#B75742"/>
<path d="M675.441 158.442C675.888 157.821 676.486 157.324 677.179 156.998C677.871 156.671 678.634 156.525 679.398 156.574C680.318 156.65 681.211 156.928 682.011 157.388C683.423 158.109 682.831 159.932 681.174 159.942H681.094C678.392 159.941 674.506 160.114 675.441 158.442Z" fill="#B75742"/>
<path d="M658.117 107.146C657.83 106.816 657.684 106.388 657.709 105.951C657.735 105.515 657.931 105.107 658.254 104.813C657.174 104.699 656.082 104.803 655.043 105.122C654.004 105.44 653.041 105.965 652.21 106.665C650.414 108.461 650.186 114.865 652.21 117.873C654.027 120.574 658.821 121.461 660.147 122.602C661.517 120.266 659.419 118.3 658.925 117.2C658.43 116.1 661.391 113.33 661.732 111.129C662.074 108.928 659.357 108.384 658.117 107.146Z" fill="#184655"/>
<path d="M654.224 105.388C652.889 105.754 651.474 105.691 650.176 105.21C647.923 104.41 645.686 108.435 645.686 108.435C645.686 108.435 647.772 112.95 649.442 114.05C651.112 115.15 654.224 105.388 654.224 105.388Z" fill="#B75742"/>
<path d="M682.836 143.799C682.836 142.797 679.767 139.909 678.293 140.373C675.806 141.599 673.391 142.966 671.059 144.467L645.392 138.431C645.392 138.431 638.914 123.66 638.281 110.969C633.457 111.559 628.808 113.141 624.626 115.616C626.87 127.752 632.326 147.424 638.357 151.115C640.893 152.668 671.186 149.257 671.186 149.257C671.186 149.257 677.485 150.138 679.048 149.706C685.473 147.935 682.836 145.816 682.836 143.799Z" fill="#F7A491"/>
<path d="M638.439 97.4135C637.64 93.5828 636.718 89.7384 632.577 88.5243C631.287 88.1806 629.933 88.1508 628.629 88.4375C627.325 88.7243 626.108 89.3192 625.081 90.1724C622.64 92.1723 621.96 95.3794 621.971 98.4152C621.939 105.396 622.524 112.366 623.721 119.243C628.375 116.65 635.151 116.947 640.51 116.221C641.001 110.087 639.474 102.406 638.439 97.4135Z" fill="#F7CC7F"/>
<path d="M430.381 75.8432C427.665 90.2649 418.994 120.595 404.856 120.12C404.171 100.333 403.199 83.3333 401.841 77.963C401.535 76.8638 401.16 75.7847 400.72 74.7319C409.526 75.496 414.816 62.0725 416.844 52.6157C415.039 58.6164 410.947 68.2298 405.586 71.4437C404.692 72.0363 403.669 72.405 402.603 72.5185C401.537 72.6321 400.46 72.4871 399.462 72.0959C394.351 62.5762 384.694 56.2077 380.032 50.5404C376.344 46.005 378.71 27.8725 379.62 22.1196C378.325 28.7942 376.941 38.5663 377.521 45.3872C378.242 53.0748 382.204 53.5614 391.295 63.8897C398.574 72.0342 401.118 76.4269 401.369 107.633C400.706 107.773 400.033 107.861 399.357 107.894C391.906 108.03 385.056 100.793 381.262 94.4623C384.259 100.22 389.574 106.738 395.81 108.715C396.959 109.072 398.149 109.278 399.351 109.329C400.028 109.337 400.704 109.299 401.376 109.215C401.538 111.956 402.375 165.571 401.634 200.213C403.83 200.24 403.434 199.212 405.588 199.383C405.505 190 405.982 154.913 404.986 124.117C421.481 123.452 428.403 92.9444 430.381 75.8432Z" fill="#184655"/>
<path d="M369.911 28.5064C373.274 31.2019 378.283 30.5383 378.283 30.5383L366.107 20.7765C366.107 20.7765 366.549 25.811 369.911 28.5064Z" fill="#3C8F7C"/>
<path d="M366.107 20.7765L378.283 30.5394C378.283 30.5394 377.841 25.5049 374.479 22.8095C371.116 20.114 366.107 20.7765 366.107 20.7765Z" fill="#96D9C9"/>
<path d="M426.468 117.832C430.775 117.67 434.128 113.889 434.128 113.889L418.533 114.477C418.533 114.477 422.161 117.995 426.468 117.832Z" fill="#3C8F7C"/>
<path d="M418.532 114.477L434.127 113.889C434.127 113.889 430.498 110.372 426.191 110.535C421.884 110.697 418.532 114.477 418.532 114.477Z" fill="#96D9C9"/>
<path d="M430.983 102.144C433.926 100.244 434.702 96.2052 434.702 96.2052L424.046 103.091C424.046 103.091 428.044 104.045 430.983 102.144Z" fill="#3C8F7C"/>
<path d="M424.046 103.093L434.706 96.2109C434.706 96.2109 430.708 95.2572 427.765 97.1588C424.822 99.0605 424.046 103.093 424.046 103.093Z" fill="#96D9C9"/>
<path d="M415.746 101.557C416.96 104.844 420.729 106.481 420.729 106.481L416.333 94.5776C416.333 94.5776 414.533 98.2702 415.746 101.557Z" fill="#3C8F7C"/>
<path d="M416.333 94.5776L420.728 106.481C420.728 106.481 422.529 102.788 421.316 99.5014C420.103 96.2143 416.333 94.5776 416.333 94.5776Z" fill="#96D9C9"/>
<path d="M381.19 37.5578C378.557 39.3909 377.976 43.1085 377.976 43.1085L387.512 36.4693C387.512 36.4693 383.823 35.7235 381.19 37.5578Z" fill="#3C8F7C"/>
<path d="M387.512 36.4682L377.976 43.1074C377.976 43.1074 381.664 43.8521 384.298 42.0189C386.932 40.1858 387.512 36.4682 387.512 36.4682Z" fill="#96D9C9"/>
<path d="M417.605 64.1581C414.407 63.9091 411.602 66.4172 411.602 66.4172L423.186 67.3195C423.186 67.3195 420.804 64.4059 417.605 64.1581Z" fill="#3C8F7C"/>
<path d="M423.186 67.3138L411.602 66.4115C411.602 66.4115 413.984 69.3239 417.182 69.5718C420.38 69.8196 423.186 67.3138 423.186 67.3138Z" fill="#96D9C9"/>
<path d="M383.389 100.621C380.191 100.372 377.386 102.88 377.386 102.88L388.969 103.782C388.969 103.782 386.588 100.87 383.389 100.621Z" fill="#3C8F7C"/>
<path d="M388.969 103.78L377.386 102.878C377.386 102.878 379.768 105.79 382.966 106.038C386.164 106.286 388.969 103.78 388.969 103.78Z" fill="#96D9C9"/>
<path d="M389.398 97.3815C388.23 94.3926 384.752 92.9592 384.752 92.9592L388.978 103.782C388.978 103.782 390.565 100.37 389.398 97.3815Z" fill="#3C8F7C"/>
<path d="M388.98 103.782L384.755 92.9592C384.755 92.9592 383.168 96.3708 384.335 99.3552C385.503 102.34 388.98 103.782 388.98 103.782Z" fill="#96D9C9"/>
<path d="M412.27 60.0566C411.669 58.7816 410.632 57.7635 409.346 57.1865L411.941 64.1409C412.534 62.8624 412.651 61.4137 412.27 60.0566Z" fill="#3C8F7C"/>
<path d="M411.941 64.1409L409.346 57.1865C408.995 57.8016 408.784 58.4862 408.727 59.192C408.67 59.8977 408.769 60.6074 409.016 61.2707C409.264 61.9341 409.654 62.535 410.159 63.0309C410.665 63.5269 411.273 63.9058 411.941 64.1409Z" fill="#96D9C9"/>
<path d="M373.821 44.5546C370.823 43.4124 367.425 45.0286 367.425 45.0286L378.283 49.1631C378.283 49.1631 376.82 45.6955 373.821 44.5546Z" fill="#3C8F7C"/>
<path d="M378.283 49.1619L367.425 45.0274C367.425 45.0274 368.888 48.4938 371.887 49.6359C374.886 50.778 378.283 49.1619 378.283 49.1619Z" fill="#96D9C9"/>
<path d="M412.031 199.493H413.725V133.048C413.725 132.823 413.635 132.608 413.477 132.449C413.318 132.29 413.103 132.201 412.878 132.201C412.653 132.201 412.438 132.29 412.279 132.449C412.12 132.608 412.031 132.823 412.031 133.048V199.493Z" fill="#F7CC7F"/>
<path d="M392.311 201.88C392.311 201.88 400.103 192.514 406.375 195.179C412.648 197.843 413.672 193.029 416.955 194.618C419.643 196.165 422.124 198.045 424.34 200.215L392.311 201.88Z" fill="#B75742"/>
<path d="M407.358 151.819C405.228 151.798 403.135 151.252 401.266 150.229C401.171 150.178 401.101 150.091 401.069 149.988C401.038 149.884 401.049 149.773 401.099 149.677C401.15 149.582 401.235 149.51 401.338 149.478C401.441 149.445 401.553 149.455 401.649 149.504C408.396 153.062 413.264 149.275 413.469 149.112C413.553 149.044 413.662 149.012 413.77 149.024C413.878 149.036 413.977 149.09 414.045 149.175C414.114 149.26 414.145 149.368 414.134 149.476C414.122 149.585 414.068 149.684 413.983 149.752C412.042 151.111 409.727 151.834 407.358 151.819Z" fill="#FAE0B2"/>
<path d="M401.729 150.33L400.997 149.898C400.446 149.574 395.62 146.663 395.457 144.425C395.438 144.164 395.485 143.902 395.594 143.664C395.703 143.426 395.87 143.22 396.08 143.063C396.378 142.768 396.753 142.561 397.163 142.468C397.572 142.374 398 142.397 398.397 142.533C400.71 143.447 401.525 148.873 401.611 149.488L401.729 150.33ZM397.702 143.221C397.289 143.251 396.899 143.422 396.596 143.704C396.49 143.777 396.404 143.877 396.348 143.993C396.292 144.109 396.268 144.238 396.277 144.367C396.371 145.671 399.005 147.646 400.65 148.716C400.287 146.858 399.435 143.829 398.097 143.298C397.971 143.247 397.837 143.221 397.702 143.221Z" fill="#FAE0B2"/>
<path d="M396.569 155.295C396.361 155.292 396.157 155.233 395.98 155.123C395.803 155.013 395.66 154.857 395.565 154.672C395.441 154.474 395.365 154.25 395.343 154.017C395.32 153.785 395.352 153.55 395.436 153.332C396.094 151.548 399.95 150.206 400.387 150.059L401.391 149.716L400.876 150.643C400.448 151.414 398.226 155.264 396.587 155.29L396.569 155.295ZM399.563 151.255C398.264 151.806 396.539 152.713 396.207 153.617C396.165 153.719 396.149 153.83 396.16 153.941C396.171 154.051 396.208 154.157 396.269 154.249C396.406 154.478 396.519 154.472 396.574 154.478C397.278 154.463 398.576 152.811 399.563 151.255Z" fill="#FAE0B2"/>
<path d="M402.095 149.721C402.095 149.86 402.054 149.996 401.977 150.112C401.899 150.228 401.789 150.318 401.661 150.372C401.532 150.425 401.391 150.439 401.254 150.412C401.117 150.385 400.992 150.318 400.894 150.219C400.795 150.121 400.728 149.996 400.701 149.859C400.674 149.722 400.688 149.581 400.741 149.452C400.795 149.324 400.885 149.214 401.001 149.137C401.117 149.059 401.253 149.018 401.392 149.018C401.578 149.019 401.757 149.093 401.889 149.224C402.02 149.356 402.094 149.535 402.095 149.721Z" fill="#FAE0B2"/>
<path d="M158.012 432.216L160.489 434.327L163.5 432.937L166.109 435.499L168.861 433.028L171.945 435.795L174.759 433.833L178.156 436.01L177.334 437.299L174.794 435.672L171.825 437.743L168.864 435.083L166.067 437.595L163.187 434.766L160.247 436.123L157.95 434.167L156.205 435.463L155.297 434.233L158.012 432.216Z" fill="#50BFA5"/>
<path d="M480.903 41.4822L470.864 39.1636L468.21 46.3134L458.226 44.3718L454.605 50.8934L446.923 50.3965L446.889 53.4803L457.168 54.145L460.594 47.9638L470.981 49.9853L473.591 42.9533L482.688 45.0548L480.903 41.4822Z" fill="#F7CC7F"/>
<path d="M777.549 228.363L781.17 222.243L778.183 215.789C778.107 215.623 778.078 215.44 778.101 215.259C778.123 215.078 778.195 214.907 778.31 214.765C778.424 214.623 778.576 214.515 778.748 214.455C778.92 214.395 779.105 214.384 779.283 214.424L786.224 215.978L791.439 211.142C791.573 211.018 791.739 210.934 791.918 210.9C792.097 210.865 792.282 210.881 792.453 210.946C792.623 211.012 792.772 211.123 792.882 211.268C792.992 211.413 793.06 211.587 793.077 211.768L793.744 218.85L799.955 222.315C800.114 222.403 800.246 222.535 800.334 222.695C800.423 222.854 800.465 223.036 800.456 223.218C800.446 223.4 800.386 223.576 800.282 223.726C800.178 223.876 800.033 223.994 799.866 224.066L793.337 226.888L791.96 233.865C791.925 234.044 791.84 234.21 791.716 234.343C791.592 234.476 791.432 234.572 791.256 234.62C791.08 234.667 790.894 234.665 790.72 234.612C790.545 234.559 790.389 234.459 790.268 234.322L785.566 228.985L778.506 229.832C778.325 229.854 778.141 229.824 777.976 229.747C777.811 229.67 777.67 229.548 777.571 229.395C777.471 229.242 777.416 229.065 777.412 228.883C777.408 228.7 777.456 228.52 777.549 228.363Z" fill="#466EB6"/>
<path d="M169.11 373.68C169.554 372.646 170.222 371.724 171.066 370.98C171.91 370.237 172.91 369.69 173.991 369.38C174.744 369.148 175.535 369.07 176.319 369.149C177.102 369.229 177.861 369.466 178.551 369.845C179.242 370.224 179.849 370.738 180.336 371.356C180.824 371.975 181.182 372.685 181.39 373.444C182.47 377.036 180.598 382.238 173.533 388.388C164.245 387.153 159.817 383.851 158.737 380.258C158.491 379.51 158.398 378.72 158.464 377.935C158.529 377.15 158.752 376.387 159.118 375.69C159.485 374.993 159.988 374.376 160.597 373.878C161.207 373.379 161.91 373.008 162.666 372.786C163.739 372.448 164.874 372.353 165.989 372.508C167.103 372.662 168.169 373.063 169.11 373.68Z" fill="#F48C7F"/>
<path d="M141.82 383.435C144.78 383.056 147.716 382.508 150.614 381.794C151.488 381.579 153.069 381.464 153.489 380.565C153.609 380.356 153.646 380.109 153.59 379.874C153.535 379.64 153.392 379.435 153.191 379.302C152.368 378.731 151.121 379.343 150.241 379.561C147.555 380.22 144.484 380.84 141.346 381.286C141.062 381.352 140.816 381.526 140.66 381.772C140.503 382.017 140.45 382.315 140.511 382.599C140.579 382.881 140.755 383.126 140.999 383.282C141.244 383.437 141.54 383.493 141.824 383.435H141.82Z" fill="#F48C7F"/>
<path d="M188.35 379.325C189.641 379.031 190.925 378.713 192.209 378.399C193.529 378.229 194.812 377.843 196.007 377.256C196.186 377.156 196.328 377.001 196.411 376.813C196.495 376.626 196.516 376.416 196.471 376.216C196.426 376.016 196.318 375.836 196.162 375.702C196.007 375.568 195.812 375.488 195.607 375.474C194.281 375.502 192.969 375.751 191.724 376.209C190.439 376.527 189.154 376.842 187.875 377.18C187.599 377.251 187.361 377.427 187.212 377.671C187.062 377.914 187.014 378.206 187.076 378.485C187.137 378.764 187.305 379.007 187.544 379.165C187.782 379.322 188.072 379.381 188.352 379.328L188.35 379.325Z" fill="#F48C7F"/>
<path d="M157.779 397.375C158.734 394.275 160.496 392.963 161.744 391.561C161.893 391.412 161.984 391.216 162.003 391.007C162.021 390.798 161.964 390.589 161.844 390.417C161.723 390.245 161.545 390.122 161.342 390.068C161.139 390.015 160.923 390.035 160.734 390.125C158.142 391.204 156.443 394.173 155.681 396.74C155.607 397.015 155.644 397.308 155.782 397.557C155.921 397.805 156.15 397.991 156.423 398.073C156.695 398.155 156.989 398.128 157.242 397.998C157.495 397.867 157.688 397.645 157.779 397.375Z" fill="#F48C7F"/>
<path d="M174.247 400.564C173.868 399.26 173.767 397.891 173.95 396.545C174.064 395.713 175.085 393.233 173.478 393.197C171.965 393.169 171.765 395.692 171.667 396.761C171.537 398.203 171.681 399.656 172.091 401.045C172.489 402.403 174.636 401.937 174.248 400.564H174.247Z" fill="#F48C7F"/>
<path d="M183.189 389.83L185.711 390.868C186.549 391.211 187.416 391.803 188.31 391.382C188.529 391.262 188.693 391.061 188.769 390.823C188.844 390.585 188.825 390.327 188.716 390.102C188.395 389.26 187.132 389.022 186.364 388.712L183.838 387.684C183.554 387.601 183.248 387.632 182.988 387.772C182.727 387.912 182.531 388.148 182.443 388.431C182.364 388.715 182.397 389.019 182.536 389.279C182.675 389.538 182.91 389.735 183.19 389.826L183.189 389.83Z" fill="#F48C7F"/>
<path d="M158.362 367.939C154.043 362.03 154.087 361.984 153.405 361.576C153.243 361.482 153.058 361.436 152.871 361.445C152.684 361.453 152.503 361.515 152.35 361.624C152.198 361.732 152.079 361.882 152.01 362.056C151.94 362.23 151.922 362.42 151.957 362.604C152.15 363.415 152.133 363.277 156.7 369.479C156.906 369.696 157.189 369.824 157.488 369.835C157.787 369.846 158.078 369.739 158.299 369.538C158.513 369.33 158.638 369.048 158.65 368.75C158.661 368.453 158.557 368.162 158.36 367.939H158.362Z" fill="#F48C7F"/>
<path d="M170.072 365.03C170.235 363.839 170.27 362.633 170.177 361.434C170.09 360.316 170.107 358.592 168.926 358.085C168.782 358.038 168.628 358.031 168.481 358.065C168.333 358.099 168.198 358.173 168.089 358.278C167.326 359.119 167.87 360.538 167.946 361.569C168.021 362.696 168 363.827 167.882 364.95C167.874 365.24 167.98 365.521 168.177 365.733C168.374 365.946 168.647 366.073 168.936 366.086C169.225 366.091 169.504 365.984 169.716 365.787C169.927 365.591 170.055 365.32 170.072 365.032V365.03Z" fill="#F48C7F"/>
<path d="M186.89 362.101C186.961 361.554 186.444 361.179 185.977 361.112C185.006 360.977 184.05 362.117 183.411 362.737C182.674 363.461 181.997 364.244 181.385 365.077C181.234 365.327 181.186 365.626 181.253 365.911C181.32 366.195 181.497 366.442 181.744 366.598C181.995 366.745 182.293 366.79 182.576 366.724C182.86 366.657 183.106 366.483 183.265 366.239C185.706 363.185 186.717 363.453 186.89 362.101Z" fill="#F48C7F"/>
<path d="M810.314 293.061C809.242 301.503 818.034 308.204 825.856 307.68C830.119 307.288 834.131 305.485 837.254 302.557C840.378 299.628 842.436 295.742 843.102 291.512C844.472 282.317 838.945 274.964 830.397 274.29C828.593 274.083 826.767 274.341 825.091 275.038C823.414 275.735 821.944 276.849 820.818 278.273C819.693 279.697 818.949 281.385 818.659 283.177C818.368 284.969 818.54 286.806 819.157 288.513C820.881 293.872 825.771 295.868 828.235 294.39C828.683 294.165 829.052 293.808 829.29 293.367C829.529 292.926 829.627 292.422 829.57 291.924C829.513 291.426 829.305 290.957 828.973 290.581C828.641 290.205 828.201 289.94 827.714 289.822C827.259 289.745 826.793 289.802 826.369 289.984C825.946 290.167 825.584 290.467 825.327 290.85C823.292 290.042 821.355 286.337 822.669 282.336C824.348 277.226 830.809 276.934 834.82 279.317C839.928 282.351 840.73 288.883 838.857 294.088C837.835 296.849 836.058 299.269 833.728 301.069C831.398 302.87 828.609 303.98 825.679 304.273C822.481 304.475 819.332 303.415 816.907 301.321C814.481 299.228 812.973 296.267 812.705 293.074C812.707 292.757 812.583 292.452 812.36 292.227C812.137 292.001 811.833 291.874 811.516 291.872C811.199 291.87 810.894 291.994 810.669 292.217C810.443 292.44 810.316 292.744 810.314 293.061Z" fill="#86B1F2"/>
<path d="M192.43 462.817C191.882 467.141 196.384 470.574 200.389 470.302C202.573 470.101 204.627 469.178 206.226 467.678C207.826 466.178 208.879 464.188 209.22 462.022C209.921 457.313 207.091 453.546 202.71 453.201C201.786 453.096 200.851 453.228 199.993 453.585C199.134 453.942 198.381 454.512 197.804 455.241C197.228 455.971 196.847 456.835 196.698 457.753C196.55 458.671 196.637 459.611 196.954 460.486C197.837 463.227 200.341 464.255 201.602 463.495C201.831 463.38 202.02 463.196 202.141 462.97C202.263 462.744 202.313 462.487 202.284 462.232C202.255 461.977 202.148 461.737 201.979 461.544C201.809 461.351 201.584 461.215 201.335 461.154C201.102 461.115 200.863 461.145 200.647 461.238C200.43 461.332 200.245 461.486 200.113 461.682C199.07 461.268 198.079 459.371 198.752 457.322C199.612 454.704 202.92 454.555 204.975 455.776C207.591 457.329 208.001 460.675 207.042 463.341C206.519 464.756 205.609 465.994 204.416 466.917C203.222 467.839 201.794 468.407 200.293 468.557C198.656 468.661 197.042 468.118 195.8 467.046C194.558 465.973 193.785 464.457 193.649 462.822C193.634 462.67 193.564 462.529 193.452 462.427C193.34 462.324 193.193 462.267 193.041 462.266C192.889 462.265 192.742 462.322 192.629 462.423C192.516 462.525 192.445 462.666 192.43 462.817Z" fill="#86B1F2"/>
<path d="M208.638 316.736L208.573 308.641L201.867 304.103C201.695 303.987 201.559 303.825 201.474 303.635C201.39 303.445 201.36 303.236 201.388 303.03C201.416 302.824 201.501 302.631 201.634 302.471C201.766 302.311 201.941 302.192 202.138 302.126L209.819 299.563L212.061 291.783C212.118 291.583 212.23 291.404 212.384 291.265C212.539 291.126 212.728 291.033 212.933 290.996C213.137 290.96 213.347 290.981 213.54 291.057C213.733 291.134 213.901 291.263 214.024 291.43L218.836 297.94L226.928 297.669C227.135 297.662 227.341 297.713 227.521 297.817C227.7 297.921 227.848 298.073 227.946 298.256C228.044 298.439 228.089 298.646 228.075 298.853C228.062 299.06 227.991 299.259 227.87 299.428L223.163 306.017L225.922 313.629C225.992 313.825 226.007 314.035 225.964 314.238C225.921 314.441 225.822 314.628 225.678 314.778C225.534 314.927 225.352 315.034 225.151 315.085C224.95 315.137 224.739 315.131 224.541 315.068L216.827 312.624L210.44 317.601C210.277 317.73 210.08 317.81 209.873 317.834C209.666 317.857 209.457 317.821 209.269 317.731C209.081 317.641 208.922 317.5 208.811 317.324C208.699 317.148 208.639 316.944 208.638 316.736Z" fill="#F7CC7F"/>
<path d="M771.266 355.438C771.174 354.104 771.479 352.771 772.144 351.61C772.809 350.449 773.803 349.511 775.001 348.915C776.198 348.319 777.546 348.091 778.873 348.261C780.2 348.431 781.447 348.99 782.456 349.869C783.465 350.747 784.191 351.905 784.543 353.196C784.894 354.487 784.854 355.853 784.429 357.122C784.004 358.39 783.212 359.504 782.154 360.323C781.095 361.141 779.818 361.627 778.483 361.72C777.597 361.782 776.707 361.668 775.865 361.385C775.022 361.103 774.244 360.657 773.574 360.074C772.903 359.491 772.355 358.781 771.959 357.986C771.563 357.19 771.327 356.325 771.266 355.438Z" fill="#F7CC7F"/>
<path d="M782.74 374.536C782.435 372.523 781.995 370.534 781.421 368.581C781.289 368.24 781.041 367.956 780.72 367.781C780.398 367.606 780.025 367.551 779.667 367.625C779.309 367.699 778.989 367.897 778.763 368.185C778.538 368.473 778.422 368.832 778.436 369.198C778.717 371.358 779.142 373.498 779.71 375.602C779.854 376.002 780.149 376.329 780.533 376.513C780.916 376.697 781.356 376.722 781.758 376.584C782.153 376.433 782.474 376.137 782.657 375.756C782.84 375.375 782.87 374.938 782.74 374.536Z" fill="#F7CC7F"/>
<path d="M794.331 366.155C792.157 364.769 790.065 363.259 788.065 361.632C787.754 361.38 787.357 361.259 786.958 361.294C786.56 361.329 786.19 361.518 785.927 361.819C785.664 362.121 785.529 362.513 785.549 362.913C785.569 363.313 785.744 363.689 786.036 363.963C788.051 366 790.354 367.731 792.87 369.103C793.262 369.292 793.712 369.321 794.124 369.182C794.537 369.043 794.878 368.747 795.075 368.359C795.26 367.967 795.285 367.518 795.146 367.107C795.008 366.696 794.716 366.355 794.331 366.155Z" fill="#F7CC7F"/>
<path d="M790.085 354.046C789.847 354.22 789.684 354.478 789.629 354.768C789.574 355.057 789.631 355.357 789.789 355.606C790.547 356.977 792.472 356.914 793.839 356.863C795.271 356.804 796.686 356.534 798.04 356.063C798.442 355.913 798.77 355.611 798.952 355.222C799.134 354.833 799.157 354.389 799.014 353.983C798.872 353.578 798.576 353.245 798.19 353.056C797.805 352.867 797.36 352.836 796.953 352.971C793.04 354.312 791.558 352.863 790.085 354.046Z" fill="#F7CC7F"/>
<path d="M787.931 340.892C785.962 343.771 784.354 344.744 784.604 346.331C784.623 346.534 784.688 346.73 784.793 346.904C784.899 347.079 785.042 347.227 785.212 347.339C785.382 347.451 785.575 347.524 785.777 347.551C785.979 347.579 786.185 347.561 786.379 347.498C787.436 347.257 788.013 346.137 788.646 345.35C789.255 344.595 789.851 343.839 790.393 343.035C790.665 342.703 790.799 342.28 790.769 341.852C790.74 341.424 790.548 341.024 790.234 340.732C789.906 340.451 789.48 340.31 789.049 340.34C788.619 340.37 788.217 340.568 787.931 340.892Z" fill="#F7CC7F"/>
<path d="M780.261 340.393C779.631 338.647 779.493 338.012 778.676 337.195C778.49 337.035 778.265 336.927 778.023 336.881C777.782 336.834 777.533 336.852 777.3 336.931C777.067 337.01 776.859 337.148 776.696 337.331C776.533 337.515 776.42 337.738 776.369 337.979C776.255 339.19 776.508 339.64 777.169 341.475C777.24 341.677 777.351 341.864 777.495 342.025C777.638 342.185 777.812 342.315 778.006 342.408C778.2 342.501 778.41 342.555 778.625 342.567C778.84 342.578 779.055 342.548 779.258 342.476C779.461 342.405 779.648 342.294 779.808 342.151C779.968 342.007 780.098 341.833 780.191 341.639C780.284 341.445 780.338 341.235 780.35 341.02C780.362 340.805 780.331 340.59 780.259 340.387L780.261 340.393Z" fill="#F7CC7F"/>
<path d="M771.975 344.618C769.136 342.461 768.559 341.854 767.443 341.971C767.089 341.999 766.76 342.164 766.527 342.432C766.294 342.7 766.176 343.048 766.198 343.402C766.463 344.765 767.257 345.136 769.865 347.039C770.191 347.308 770.608 347.442 771.029 347.413C771.451 347.384 771.845 347.193 772.13 346.881C772.406 346.559 772.544 346.141 772.515 345.718C772.485 345.294 772.291 344.899 771.974 344.618H771.975Z" fill="#F7CC7F"/>
<path d="M760.572 354.503C760.336 354.671 760.154 354.904 760.047 355.173C759.941 355.443 759.915 355.738 759.972 356.022C760.029 356.306 760.168 356.567 760.371 356.774C760.574 356.981 760.832 357.125 761.115 357.188C762.276 357.34 762.724 357.154 768.359 356.125C768.788 356.083 769.184 355.878 769.467 355.553C769.75 355.228 769.898 354.808 769.881 354.377C769.848 353.945 769.646 353.543 769.319 353.258C768.992 352.973 768.566 352.829 768.133 352.856C762.285 353.911 761.697 353.907 760.572 354.503Z" fill="#F7CC7F"/>
<path d="M769.402 363.719C766.319 366.708 765.862 366.18 764.643 368.007C764.537 368.225 764.49 368.467 764.507 368.709C764.524 368.951 764.604 369.184 764.739 369.385C764.874 369.587 765.059 369.749 765.276 369.856C765.494 369.964 765.735 370.012 765.977 369.997C767.223 369.769 767.558 369.557 769.182 368.271C770.125 367.524 771.029 366.721 771.895 365.886C772.179 365.555 772.322 365.125 772.291 364.689C772.261 364.253 772.061 363.846 771.734 363.556C771.399 363.277 770.97 363.138 770.536 363.168C770.101 363.198 769.695 363.395 769.402 363.718V363.719Z" fill="#F7CC7F"/>
<path d="M250.883 651.57H257.499V300.23C257.499 299.351 257.15 298.509 256.529 297.888C255.908 297.267 255.066 296.918 254.187 296.918C253.309 296.918 252.466 297.267 251.845 297.888C251.224 298.509 250.875 299.351 250.875 300.23L250.883 651.57Z" fill="#FAE0B2"/>
<path d="M295.576 651.57H302.191V294.282C302.191 293.403 301.842 292.561 301.221 291.94C300.6 291.318 299.757 290.969 298.879 290.969C298 290.969 297.158 291.318 296.536 291.94C295.915 292.561 295.566 293.403 295.566 294.282L295.576 651.57Z" fill="#FAE0B2"/>
<path d="M301.126 335.009H255.586V338.974H301.126V335.009Z" fill="#FAE0B2"/>
<path d="M301.126 388.138H255.586V392.103H301.126V388.138Z" fill="#FAE0B2"/>
<path d="M301.126 441.265H255.586V445.23H301.126V441.265Z" fill="#FAE0B2"/>
<path d="M301.126 494.393H255.586V498.359H301.126V494.393Z" fill="#FAE0B2"/>
<path d="M268.29 528.115H239.562C238.423 528.115 237.331 528.567 236.525 529.373C235.72 530.178 235.268 531.27 235.268 532.409V548.531H240.071V533.243H268.29V528.115Z" fill="#13375B"/>
<path d="M273.781 517.226L264.873 507.831C264.873 507.831 255.342 513.073 244.231 518.081C241.177 512.765 236.192 495.277 235.923 494.439C235.655 493.601 241.762 483.097 240.396 482.834C239.03 482.571 237.255 488.443 235.811 487.848C234.368 487.253 230.655 473.627 229.785 474.371C228.159 475.763 231.738 482.845 230.882 483.362C230.025 483.878 227.849 475.509 226.199 475.867C224.549 476.224 228.995 483.485 228.507 484.183C228.02 484.881 223.368 478.069 222.405 479.647C221.883 480.504 226.696 485.578 225.707 486.147C224.718 486.716 220.379 483.52 219.861 484.548C219.344 485.576 223.909 486.663 225.176 489.283C226.442 491.903 228.748 492.923 229.516 497.878C230.283 502.833 232.371 529.312 237.77 531.438C242.478 533.304 273.781 517.226 273.781 517.226Z" fill="#7F4A19"/>
<path d="M355.917 639.323C356.62 634.327 356.564 625.105 356.208 615.375C360.565 615.154 364.253 614.878 368.606 614.59C366.792 627.017 365.573 639.812 365.573 639.812L365.872 642.269L366.033 649.548L341.372 649.73C345.67 647.716 349.835 645.427 353.839 642.878C354.42 642.469 354.907 641.94 355.265 641.327C355.624 640.713 355.846 640.03 355.917 639.323Z" fill="#F7A491"/>
<path d="M366.696 651.112L340.692 651.419C339.751 651.335 339.52 650.574 339.848 650.105C340.521 649.139 343.489 648.429 346.828 646.89C352.683 647.501 364.933 643.501 365.857 642.156C366.39 644.848 367.219 650.997 366.696 651.112Z" fill="#F47458"/>
<path d="M400.1 634.176C398.065 629.559 393.156 621.751 387.725 613.671C391.311 611.186 394.867 608.657 398.416 606.117C403.424 617.633 408.566 629.502 408.566 629.502L410.113 631.433L414.087 637.535L393.226 650.69C395.816 646.71 398.148 642.568 400.206 638.289C400.485 637.636 400.619 636.931 400.601 636.221C400.582 635.511 400.412 634.814 400.1 634.176Z" fill="#F7A491"/>
<path d="M415.169 639.06L393.535 652.478C392.691 652.903 392.095 652.378 392.125 651.807C392.186 650.631 394.337 648.464 396.362 645.396C401.66 642.828 409.912 632.91 409.987 631.28C411.863 633.287 415.557 638.687 415.169 639.06Z" fill="#F47458"/>
<path d="M389.957 431.06C391.885 421.657 385.837 412.335 377.356 408.835C377.413 403.483 375.679 396.706 372.026 393.043C364.818 385.817 351.063 383.283 345.762 392.497C338.761 396.458 333.254 405.035 335.341 412.85C328.556 419.876 331.134 432.593 341.027 438.596C340.869 446.477 345.038 454.317 351.933 457.687C353.497 458.362 355.023 459.125 356.502 459.971C356.07 459.563 361.609 474.984 378.814 467.927C396.375 460.726 401.399 440.453 389.957 431.06Z" fill="#E2D1A1"/>
<path d="M355.462 632.264C357.599 620.417 350.179 591.049 345.655 578.135C340.948 564.704 337.956 507.867 337.956 507.867L343.29 501.629L365.065 500.325C365.065 500.325 355.8 528.791 355.8 538.573C355.8 548.356 360.308 573.604 365.602 586.742C370.486 598.862 368.457 624.276 366.978 632.633C363.149 633.217 359.246 633.092 355.462 632.264Z" fill="#184655"/>
<path d="M370.57 502.971C371.569 503.968 377.423 510.898 377.423 515.742C377.423 520.586 366.394 564.187 369.041 566.83C371.689 569.473 381.48 576.089 387.73 585.305C392.994 593.071 405.066 615.523 407.374 620.864C403.365 623.57 398.961 625.639 394.319 626.998C393.588 623.023 357.927 583.712 353.854 575.488C349.781 567.265 347.572 529.689 345.517 524.695C343.461 519.702 337.965 507.024 337.965 507.024L370.57 502.971Z" fill="#3C8F7C"/>
<path d="M338.802 470.839C338.802 470.839 325.359 486.181 310.477 491.955C308.907 492.617 307.448 493.517 306.151 494.623C306.151 496.188 308.942 495.055 308.942 495.055C308.375 496.087 308.216 497.294 308.498 498.438C308.988 500.297 312.232 499.061 313.997 499.061C314.806 499.061 318.953 494.42 324.555 491.69C331.18 488.462 339.005 485.302 339.961 484.347C341.729 482.585 339.325 470.277 338.802 470.839Z" fill="#F79C8D"/>
<path d="M366.145 427.662C366.145 427.662 352.615 426.292 345.556 430.794C338.498 435.296 333.988 451.345 333.988 458.197C333.988 465.049 339.077 501.062 337.121 507.913C337.121 507.913 359.478 506.934 367.126 506.934C374.773 506.934 376.341 503.998 376.341 503.998C376.341 503.998 360.459 488.339 360.459 481.489C360.459 474.638 366.145 427.662 366.145 427.662Z" fill="#B75742"/>
<path d="M181.4 612.194V635.658H183.939V614.325H200.76V621.649C194.257 622.346 189.176 628.353 189.176 635.658C189.176 643.434 194.931 649.737 202.03 649.737C209.128 649.737 214.883 643.434 214.883 635.658C214.883 628.348 209.803 622.346 203.3 621.649V614.325H206.79V611.545H203.3V603.094H206.79V600.313H203.3V590.913H249.316V586.742H223.89V562.849C223.89 556.467 229.757 549.33 237.608 549.33H259.471V545.159H237.608C228.272 545.159 220.082 553.426 220.082 562.851V586.743H203.298V573.34H200.76V600.314H192.245C186.265 600.316 181.4 605.644 181.4 612.194ZM200.76 611.545H183.961C184.266 606.831 187.865 603.094 192.245 603.094H200.76V611.545Z" fill="#13375B"/>
<path d="M191.367 615.875C191.367 615.875 191.878 624.924 191.882 624.943C192.07 626.09 192.811 628.929 192.811 629.974C192.811 633.897 175.355 626.642 179.268 624.905C180.442 623.905 181.417 622.693 182.144 621.333C182.814 619.206 183.249 617.012 183.44 614.79L191.367 615.875Z" fill="#7F4A19"/>
<path d="M179.31 624.874C181.349 625.479 183.418 625.979 185.507 626.374C187.607 626.674 190.374 624.148 191.859 624.831C193.493 625.581 193.587 632.483 193.587 632.483C193.587 632.483 171.646 633.213 165.272 632.279C162.726 631.898 170.933 627.664 179.31 624.874Z" fill="#466EB6"/>
<path d="M278.752 596.556H283.574V504.683C283.574 501.583 286.607 499.063 290.339 499.063H333.716C334.259 499.074 334.785 498.869 335.178 498.494C335.571 498.118 335.799 497.602 335.813 497.059C335.799 496.516 335.571 496 335.178 495.625C334.785 495.249 334.259 495.045 333.716 495.056H290.341C283.952 495.056 278.754 499.374 278.754 504.683L278.752 596.556Z" fill="#13375B"/>
<path d="M256.145 635.998C272.216 635.998 285.244 622.854 285.244 606.639C285.244 590.424 272.216 577.279 256.145 577.279C240.074 577.279 227.045 590.424 227.045 606.639C227.045 622.854 240.074 635.998 256.145 635.998Z" fill="#13375B"/>
<path d="M220.711 606.639C220.773 613.633 222.904 620.453 226.835 626.239C230.766 632.025 236.322 636.518 242.802 639.151C249.282 641.785 256.397 642.442 263.25 641.04C270.103 639.637 276.387 636.238 281.311 631.27C286.236 626.302 289.579 619.987 290.921 613.122C292.263 606.257 291.543 599.149 288.852 592.692C286.161 586.236 281.619 580.72 275.799 576.84C269.978 572.96 263.14 570.89 256.145 570.89C246.706 570.932 237.67 574.722 231.025 581.426C224.38 588.13 220.67 597.2 220.711 606.639ZM224.069 606.639C224.126 600.307 226.055 594.134 229.614 588.897C233.173 583.66 238.202 579.593 244.068 577.209C249.934 574.825 256.374 574.23 262.578 575.5C268.781 576.77 274.47 579.848 278.927 584.345C283.384 588.842 286.411 594.558 287.626 600.772C288.84 606.987 288.189 613.421 285.753 619.266C283.317 625.111 279.205 630.104 273.937 633.616C268.668 637.128 262.478 639.002 256.146 639.002C247.601 638.964 239.42 635.533 233.405 629.464C227.389 623.394 224.031 615.184 224.069 606.639Z" fill="#13375B"/>
<path d="M279.409 565.902H293.646V510.745H279.409V565.902Z" fill="#3C8F7C"/>
<path d="M232.707 600.316H220.662C217.527 600.334 214.527 601.594 212.32 603.821C210.113 606.048 208.88 609.059 208.89 612.194V635.659H211.646V612.194C211.638 609.793 212.583 607.486 214.273 605.781C215.963 604.075 218.261 603.11 220.662 603.096H232.707V600.316Z" fill="#50BFA5"/>
<path d="M190.286 575.875H227.725V569.452H190.286V575.875Z" fill="#13375B"/>
<path d="M232.502 611.544H210.269V614.324H232.502V611.544Z" fill="#50BFA5"/>
<path d="M282.621 586.745H231.285V590.916H282.621V586.745Z" fill="#50BFA5"/>
<path d="M226.806 575.875H293.646V569.355H226.806V575.875Z" fill="#13375B"/>
<path d="M291.578 601.469H295.713V509.601C295.739 508.087 296.364 506.645 297.451 505.592C298.538 504.538 299.999 503.959 301.513 503.98H340.502V499.974H301.513C298.919 499.936 296.417 500.928 294.554 502.733C292.691 504.538 291.62 507.008 291.576 509.601L291.578 601.469Z" fill="#50BFA5"/>
<path d="M215.771 635.658C215.771 643.434 222.717 649.737 231.285 649.737C239.854 649.737 246.8 643.434 246.8 635.658C246.8 627.882 239.855 621.58 231.285 621.58C222.716 621.58 215.771 627.884 215.771 635.658Z" fill="#184655"/>
<path d="M221.838 635.658C221.838 640.392 226.064 644.231 231.285 644.231C236.506 644.231 240.732 640.392 240.732 635.658C240.732 630.924 236.506 627.085 231.285 627.085C226.064 627.085 221.838 630.924 221.838 635.658Z" fill="#50BFA5"/>
<path d="M193.45 545.161C197.936 540.675 260.463 542.837 260.463 542.837C260.463 542.837 207.492 555.764 204.398 557.449C201.304 559.135 189.795 616.025 189.779 616.769C186.581 616.009 184.648 616.584 181.398 615.919C181.92 606.032 186.221 552.389 193.45 545.161Z" fill="#13375B"/>
<path d="M199.544 616.154C199.544 616.154 200.056 625.202 200.059 625.221C200.248 626.363 200.989 629.207 200.989 630.247C200.989 634.17 183.533 626.916 187.444 625.178C187.798 625.02 190.204 622.942 190.32 621.606C190.5 619.551 190.405 616.275 190.405 616.275L199.544 616.154Z" fill="#7F4A19"/>
<path d="M187.489 625.146C189.528 625.75 191.596 626.251 193.686 626.645C195.785 626.947 198.551 624.419 200.036 625.102C201.671 625.853 201.765 632.755 201.765 632.755C201.765 632.755 179.825 633.486 173.45 632.55C170.905 632.175 179.11 627.942 187.489 625.146Z" fill="#466EB6"/>
<path d="M270.211 555.677C270.211 555.677 269.672 569.871 264.947 570.04C260.222 570.209 229.906 570.888 212.832 569.355L201.343 620.132L187.852 618.832C187.852 618.832 191.916 584.919 193.361 572.021C194.783 559.331 198.88 548.684 206.054 548.427C213.228 548.17 260.392 540.871 260.392 540.871L270.211 555.677Z" fill="#355389"/>
<path d="M282.928 489.418C282.928 489.418 290.58 491.36 289.544 506.309C288.508 521.259 280.238 566.491 264.947 570.04C249.656 573.59 239.698 541.393 239.698 541.393C239.698 541.393 249.345 538.223 253.363 523.257C256.146 512.889 263.605 489.493 265.469 488.367C270.112 485.573 282.928 489.418 282.928 489.418Z" fill="#86B1F2"/>
<path d="M250.883 589.957H255.017V562.853C255.017 556.471 261.387 549.333 269.91 549.333H293.645V545.159H269.91C259.774 545.159 250.883 553.426 250.883 562.851V589.957Z" fill="#50BFA5"/>
<path d="M293.646 644.231C312.103 644.231 327.065 629.134 327.065 610.512C327.065 591.889 312.103 576.793 293.646 576.793C275.188 576.793 260.226 591.889 260.226 610.512C260.226 629.134 275.188 644.231 293.646 644.231Z" fill="#50BFA5"/>
<path d="M252.95 610.512C253.022 618.545 255.469 626.377 259.985 633.022C264.5 639.666 270.881 644.826 278.323 647.851C285.765 650.875 293.936 651.629 301.807 650.018C309.677 648.407 316.894 644.503 322.55 638.797C328.205 633.091 332.045 625.839 333.586 617.955C335.127 610.07 334.3 601.906 331.209 594.491C328.118 587.076 322.902 580.742 316.217 576.286C309.533 571.83 301.679 569.452 293.645 569.452C282.804 569.5 272.426 573.854 264.794 581.554C257.162 589.254 252.902 599.67 252.95 610.512ZM256.807 610.512C256.872 603.24 259.087 596.149 263.175 590.134C267.262 584.119 273.038 579.448 279.776 576.71C286.513 573.972 293.91 573.289 301.035 574.747C308.159 576.206 314.693 579.74 319.812 584.906C324.932 590.071 328.408 596.636 329.803 603.773C331.198 610.911 330.449 618.301 327.651 625.014C324.853 631.727 320.131 637.461 314.079 641.494C308.028 645.528 300.918 647.68 293.645 647.68C283.832 647.636 274.437 643.695 267.529 636.725C260.62 629.755 256.764 620.326 256.807 610.512Z" fill="#50BFA5"/>
<path d="M293.647 638.322C308.869 638.322 321.21 625.871 321.21 610.512C321.21 595.153 308.869 582.702 293.647 582.702C278.424 582.702 266.083 595.153 266.083 610.512C266.083 625.871 278.424 638.322 293.647 638.322Z" fill="#184655"/>
<path d="M287.445 610.512C287.456 611.736 287.829 612.929 288.517 613.942C289.205 614.954 290.178 615.741 291.312 616.201C292.446 616.662 293.691 616.777 294.89 616.532C296.09 616.286 297.19 615.691 298.051 614.821C298.913 613.952 299.498 612.847 299.733 611.645C299.968 610.444 299.842 609.2 299.371 608.07C298.9 606.94 298.105 605.974 297.086 605.295C296.068 604.616 294.871 604.254 293.647 604.254C292.829 604.258 292.019 604.422 291.265 604.739C290.51 605.055 289.825 605.517 289.25 606.098C288.674 606.679 288.218 607.368 287.908 608.125C287.599 608.883 287.441 609.694 287.445 610.512Z" fill="#3C8F7C"/>
<path d="M170.715 639.934H212.795V632.645H170.715V639.934Z" fill="#184655"/>
<path d="M188.907 639.934H212.795V632.645H188.907V639.934Z" fill="#3C8F7C"/>
<path d="M232.663 575.798H229.907V639.934H232.663V575.798Z" fill="#50BFA5"/>
<path d="M229.648 636.477C229.651 636.813 229.753 637.14 229.941 637.418C230.13 637.696 230.396 637.912 230.707 638.039C231.018 638.166 231.359 638.198 231.689 638.131C232.018 638.064 232.319 637.901 232.556 637.663C232.793 637.424 232.953 637.121 233.018 636.792C233.082 636.462 233.048 636.121 232.919 635.811C232.79 635.501 232.572 635.236 232.293 635.05C232.013 634.863 231.685 634.764 231.349 634.764C230.897 634.767 230.464 634.949 230.146 635.27C229.827 635.591 229.648 636.025 229.648 636.477Z" fill="#13375B"/>
<path d="M278.306 449.392C278.306 449.392 283.668 445.767 285.934 452.116C286.651 452.069 287.372 452.088 288.086 452.172C289.212 452.771 290.269 453.492 291.237 454.323C294.738 456.564 296.352 460.92 296.543 464.919C296.771 469.771 294.768 473.321 291.576 476.826C290.677 477.9 289.603 478.814 288.399 479.529C286.914 480.328 285.739 479.692 284.342 480.03C283.166 480.316 282.753 481.557 281.366 481.109C279.425 480.481 277.382 478.047 274.97 478.408C272.559 478.769 267.004 476.601 266.989 476.596C259.848 473.812 264.671 459.99 266.039 455.085C267.328 450.472 273.888 447.724 278.306 449.392Z" fill="#184655"/>
<path d="M271.854 480.792L269.999 485.853L268.999 488.683C268.999 488.683 268.93 493.746 270.111 495.058C272.142 497.316 280.504 488.948 280.504 488.948L283.15 473.028L271.854 480.792Z" fill="#7F4A19"/>
<path d="M282.287 478.19C280.872 480.249 279.05 481.995 276.933 483.322C274.817 484.649 272.451 485.528 269.981 485.905L271.853 480.795L283.145 473.029L282.287 478.19Z" fill="#7F4A19"/>
<path d="M280.976 456.678C279.976 456.075 278.857 455.697 277.696 455.573C276.535 455.449 275.361 455.58 274.256 455.958C273.151 456.336 272.143 456.951 271.301 457.761C270.46 458.57 269.806 459.554 269.385 460.643C268.468 463.044 267.705 465.5 267.101 467.998C265.47 474.793 267.536 482.214 270.635 482.898C273.733 483.582 283.271 481.057 285.72 471.438C287.227 465.5 285.44 459.409 280.976 456.678Z" fill="#7F4A19"/>
<path d="M283.263 471.699C283.255 472.14 283.372 472.574 283.601 472.951C283.83 473.327 284.162 473.631 284.557 473.827C284.951 474.023 285.394 474.102 285.832 474.057C286.271 474.011 286.687 473.842 287.033 473.569C287.379 473.296 287.641 472.93 287.787 472.514C287.934 472.099 287.959 471.65 287.861 471.22C287.762 470.79 287.544 470.397 287.231 470.087C286.918 469.777 286.523 469.561 286.093 469.466C285.423 469.394 284.751 469.587 284.222 470.005C283.692 470.422 283.348 471.031 283.263 471.699Z" fill="#7F4A19"/>
<path d="M273.695 474.519C273.695 474.519 277.779 475.852 278.111 477.352C278.269 478.354 278.151 479.381 277.768 480.32C277.386 481.26 276.754 482.078 275.941 482.685C273.941 484.352 269.66 483.324 268.497 482.407C267.334 481.49 266.441 477.602 267.608 475.44C268.776 473.278 273.695 474.519 273.695 474.519Z" fill="#184655"/>
<path d="M275.027 477.658C275.027 477.658 275.003 479.329 274.444 479.63C273.867 479.946 273.235 480.149 272.582 480.228C272.103 480.282 271.617 480.206 271.178 480.006C270.739 479.807 270.361 479.492 270.087 479.095C270.034 479.017 269.986 478.936 269.944 478.853C269.656 478.115 269.487 477.337 269.444 476.547C270.333 476.325 271.252 476.241 272.167 476.296C273.179 476.615 274.141 477.073 275.027 477.658Z" fill="#7F4A19"/>
<path d="M319.179 497.148C320.796 495.534 328.297 493.037 333.984 488.925C336.496 487.108 341.332 484.715 346.036 482.112C349.419 483.914 352.427 486.342 354.903 489.268C346.39 493.18 337.152 497.115 335.748 498.519C333.101 501.161 328.493 507.13 327.411 507.13C326.328 507.13 318.146 504.732 316.92 503.51C315.695 502.288 317.565 498.76 319.179 497.148Z" fill="#F79C8D"/>
<path d="M346.041 482.114C351.98 478.832 357.7 475.217 358.302 471.996C359.381 466.222 354.478 441.266 357.224 436.476C359.969 431.686 366.146 427.668 366.146 427.668C367.126 427.668 370.655 429.821 371.636 434.127C372.617 438.432 370.853 477.185 369.872 480.712C369.415 482.366 362.701 488.952 355.166 492.415C352.845 489.553 349.478 484.018 346.041 482.114Z" fill="#F47458"/>
<path d="M284.919 534.382L261.262 540.58C261.262 540.58 254.308 545.595 251.179 546.592C248.049 547.589 244.229 551.034 244.977 552.09C245.725 553.147 249.66 549.556 250.295 549.666C250.93 549.775 247.985 554.026 247.507 556.814C247.028 559.602 246.071 562.309 247.669 562.09C249.267 561.871 250.427 555.592 250.427 555.592C250.427 555.592 252.885 550.847 253.282 551.407C253.68 551.968 251.641 555.226 251.641 555.226C251.641 555.226 251.157 558.748 250.944 559.988C250.786 560.913 251.637 563.688 252.362 562.668C252.789 562.068 252.59 559.777 253.083 558.47C253.757 556.757 254.657 555.14 255.759 553.664C255.759 553.664 253.98 561.695 255.097 561.888C256.214 562.081 257.37 555.427 257.37 555.427C257.37 555.427 260.101 549.886 261.292 549.393C262.483 548.899 265.758 546.789 268.292 545.909C270.827 545.03 281.297 547.927 285.968 547.987C290.639 548.046 298.221 545.157 298.85 541.493C298.862 540.824 298.727 540.161 298.456 539.549C298.185 538.938 297.784 538.393 297.281 537.952C295.744 536.284 293.778 535.069 291.599 534.439C289.42 533.81 287.109 533.79 284.919 534.382Z" fill="#7F4A19"/>
<path d="M282.928 489.417C282.928 489.417 290.086 488.144 296.564 499.798C303.042 511.452 298.848 541.486 298.848 541.486L284.914 534.377L282.928 489.417Z" fill="#466EB6"/>
<path d="M314.802 499.477C313.962 499.477 309.555 499.753 308.863 499.061C308.171 498.369 311.148 496.601 311.443 496.9C311.739 497.2 313.002 496.541 313.423 496.961C313.843 497.381 315.104 496.902 315.463 497.26C315.821 497.619 315.637 499.477 314.802 499.477Z" fill="#F48C7F"/>
<path d="M359.119 415.584C359.119 415.584 357.613 423.868 357.914 427.133C358.216 430.399 356.765 440.93 350.262 440.966C343.759 441.001 348.178 430.033 348.791 426.832C349.404 423.63 350.398 411.265 350.398 411.265L359.119 415.584Z" fill="#F7A491"/>
<path d="M349.992 415.954C350.053 414.318 350.251 412.691 350.582 411.088L359.118 415.584C359.118 415.584 358.811 417.278 358.502 419.436C356.897 419.811 355.216 419.677 353.691 419.053C352.166 418.429 350.873 417.346 349.992 415.954Z" fill="#F47458"/>
<path d="M359.304 391.524C361.761 392.558 363.768 394.434 364.966 396.815C366.961 400.802 367.619 411.96 359.576 416.246C351.533 420.533 346.229 412.627 346.728 405.544C347.227 398.46 349.454 389.178 359.304 391.524Z" fill="#F7A491"/>
<path d="M344.339 403.57C344.128 405.407 344.777 406.972 345.79 407.069C346.803 407.167 347.796 405.755 348.008 403.918C348.219 402.082 347.57 400.516 346.557 400.42C345.544 400.324 344.553 401.733 344.339 403.57Z" fill="#F7A491"/>
<path d="M364.257 406.664C363.55 408.442 363.902 410.308 365.043 410.833C366.184 411.357 367.682 410.341 368.389 408.563C369.096 406.786 368.744 404.92 367.603 404.395C366.462 403.869 364.964 404.882 364.257 406.664Z" fill="#F7A491"/>
<path d="M728.968 113.676L744.665 135.219L755.059 123.853L728.968 113.676Z" fill="#466EB6"/>
<path d="M756.461 117.898L755.052 123.852L728.964 113.675L756.461 117.898Z" fill="#9BC1F9"/>
<path d="M755.056 126.126L728.968 113.676L753.216 135.219L755.056 126.126Z" fill="#9BC1F9"/>
<path d="M770.903 151.941C767.12 151.343 763.509 149.941 760.314 147.829C754.48 144.196 752.295 137.858 752.295 136.84C752.293 136.653 752.365 136.474 752.496 136.34C752.627 136.207 752.805 136.131 752.992 136.129C753.178 136.128 753.358 136.2 753.491 136.331C753.624 136.461 753.7 136.64 753.702 136.826C754.878 140.882 757.493 144.369 761.056 146.635C764.075 148.616 767.474 149.945 771.036 150.538C771.219 150.559 771.385 150.652 771.501 150.795C771.616 150.938 771.67 151.121 771.653 151.303C771.635 151.486 771.547 151.655 771.406 151.774C771.266 151.892 771.085 151.951 770.901 151.938L770.903 151.941Z" fill="#F7CC7F"/>
<path d="M799.419 158.314C791.26 156.673 783.441 153.655 776.295 149.388C770.356 145.854 765.566 140.465 759.506 137.474C759.415 137.438 759.333 137.384 759.265 137.315C759.196 137.246 759.143 137.163 759.108 137.072C759.073 136.981 759.057 136.884 759.061 136.787C759.066 136.69 759.091 136.594 759.134 136.507C759.177 136.42 759.238 136.342 759.313 136.28C759.387 136.217 759.474 136.171 759.568 136.144C759.661 136.117 759.759 136.109 759.856 136.122C759.952 136.134 760.045 136.167 760.129 136.217C766.4 139.314 771.151 144.698 777.012 148.185C784.02 152.369 791.69 155.33 799.692 156.94C803.097 157.559 806.562 157.774 810.017 157.58C810.203 157.572 810.385 157.639 810.523 157.765C810.66 157.891 810.742 158.067 810.75 158.253C810.757 158.44 810.691 158.622 810.565 158.759C810.438 158.896 810.263 158.978 810.076 158.986C806.51 159.179 802.933 158.954 799.419 158.314Z" fill="#F7CC7F"/>
<path d="M485.691 379.408C485.691 379.408 468.425 348.591 464.224 342.041C460.024 335.491 449.081 309.46 448.691 308.434C448.302 307.408 456.229 295.089 454.458 294.668C452.687 294.246 450.731 301.162 448.843 300.336C446.955 299.51 441.441 282.862 440.365 283.686C438.352 285.231 443.335 294.014 442.265 294.568C441.194 295.122 437.942 284.905 435.834 285.203C433.727 285.501 439.842 294.568 439.253 295.368C438.663 296.167 432.316 287.628 431.168 289.449C430.544 290.437 437.004 296.904 435.764 297.509C434.523 298.115 428.776 293.941 428.167 295.145C427.558 296.349 433.482 298.001 435.249 301.242C437.015 304.483 440.036 305.889 441.288 311.898C442.54 317.907 444.413 339.652 450.831 350.502C457.248 361.352 471.358 385.361 471.358 385.361L485.691 379.408Z" fill="#BC996F"/>
<path d="M562.209 528.117C562.209 528.117 560.804 526.363 560.382 525.745C559.886 525.02 558.571 522.731 558.571 522.731C558.571 522.731 554.366 514.544 554.997 514.279C555.627 514.014 557.132 515.018 557.569 515.433C558.005 515.847 558.555 516.289 558.994 516.704C559.108 516.808 559.241 516.889 559.386 516.941C559.531 516.994 559.685 517.017 559.839 517.01C559.993 517.003 560.144 516.966 560.284 516.9C560.423 516.835 560.549 516.742 560.652 516.628C561.205 516.123 559.823 514.092 559.205 513.487C556.421 511.205 553.51 509.084 550.486 507.132C549.736 506.596 545.058 491.054 543.032 485.857C539.968 477.251 537.251 468.25 536.931 467.338L535.002 428.262L520.405 423.396C520.405 423.396 521.937 466.797 522.262 468.954C522.416 469.982 531.056 489.38 531.069 489.376C535.929 498.659 540.232 506.827 541.015 508.419C541.015 508.419 542.074 513.811 542.547 517.285C543.02 520.76 544.849 523.765 545.132 524.721C545.81 527.203 546.907 529.551 548.377 531.664C550.452 534.648 549.854 530.844 549.854 530.844C549.854 530.844 546.998 524.607 547.532 524.46C547.939 524.346 549.296 527.847 551.56 531.171C552.141 532.027 552.719 532.869 553.255 533.638C554.663 535.656 556.308 535.352 555.17 532.995C554.667 531.923 554.087 530.89 553.433 529.902C552.865 528.945 552.377 527.942 551.974 526.904C551.413 525.904 550.918 524.869 550.49 523.805C550.613 523.805 550.686 523.32 551.333 524.208C552.108 525.276 553.255 527.917 554.52 529.398C555.236 530.236 556.626 532.083 556.626 532.083C557.477 533.034 558.405 533.912 559.401 534.71C560.442 534.119 559.156 531.619 558.03 530.609C557.502 529.572 556.865 528.594 556.13 527.692C556.13 527.692 553.924 523.147 554.564 522.816C555.088 522.543 562.47 532.381 563.472 531.713C564.295 531.177 562.209 528.117 562.209 528.117Z" fill="#BC996F"/>
<path d="M536.101 375.89C536.619 367.336 534.999 358.787 531.386 351.015C528.105 344.187 519.987 340.313 512.584 340.304C489.075 340.273 486.086 371.335 471.124 383.314C466.556 386.976 461.441 389.957 457.115 393.905C441.137 408.483 448.334 435.47 463.005 448.25C473.185 457.119 489.185 462.158 501.732 455.224C508.281 451.605 513.254 445.59 516.796 438.999C521.821 429.644 525.064 418.85 528.64 408.88C532.443 398.267 535.631 387.219 536.101 375.89Z" fill="#184655"/>
<path d="M462.616 650.293C462.616 650.293 460.96 661.758 458.111 665.458C456.647 666.998 455.356 668.694 454.26 670.514C452.475 674.008 453.461 679.208 454.779 682.072C455.455 683.542 454.732 683.539 456.271 684.014C458.485 684.664 460.86 684.483 462.95 683.504C465.04 682.525 466.699 680.816 467.617 678.698C468.963 675.61 469.719 672.296 469.844 668.928C470.33 658.519 473.574 653.226 473.574 653.226L462.616 650.293Z" fill="#BC996F"/>
<path d="M512.463 655.538C512.463 655.538 513.491 668.466 512.656 672.67C512.212 674.92 509.737 679.551 510.872 681.669C511.376 682.791 512.23 683.719 513.305 684.315L542.73 684.788C544.329 684.813 543.273 683.785 541.982 682.836C539.866 681.284 538.159 680.258 531.401 676.995C530.96 676.783 529.355 675.765 528.774 675.412C527.206 674.376 525.79 673.127 524.565 671.701C522.452 669.353 522.268 657.969 522.268 657.969L512.463 655.538Z" fill="#BC996F"/>
<path d="M535.462 483.692C535.462 483.692 539.169 504.683 536.736 518.443C534.303 532.204 522.625 659.759 522.625 659.759L509.648 660.49C509.648 660.49 506.927 607.208 507.415 599.799C507.903 592.39 511.755 579.988 511.755 579.988L510.463 536.969L526.839 480.453L535.462 483.692Z" fill="#055988"/>
<path d="M497.324 479.279C497.324 479.279 487.106 494.626 484.674 507.33C482.242 520.034 486.459 559.069 481.779 575.717C479.245 584.727 469.643 598.643 468.187 610.286C466.731 621.929 461.001 652.43 461.001 652.43L473.972 654.997L504.116 578.823L527.759 509.974L533.812 474.515L497.324 479.279Z" fill="#3A77B5"/>
<path d="M505.595 391.948C505.595 391.948 492.067 391.088 486.714 396.91C481.361 402.733 498.592 448.787 499.561 456.197C500.529 463.607 494.599 483.309 494.599 483.309C494.599 483.309 526.38 489.691 535.462 483.692C535.462 483.692 536.437 430.409 535.462 425.116C534.488 419.824 526.38 398.298 524.434 396.18C522.488 394.063 505.595 391.948 505.595 391.948Z" fill="#A43A57"/>
<path d="M510.099 373.905C510.099 373.905 510.029 374.303 509.904 374.98C509.301 378.226 506.978 388.994 505.408 391.956C503.512 395.532 511.901 406.943 519.974 405.547C522.378 405.134 517.943 395.063 518.156 393.997C518.563 391.956 519.117 389.17 519.683 386.315C520.003 384.703 520.326 383.069 520.63 381.534C521.493 377.171 522.198 373.603 522.198 373.603L510.099 373.905Z" fill="#BC996F"/>
<path d="M509.903 374.98C510.028 374.303 510.098 373.905 510.098 373.905L522.198 373.604C522.198 373.604 521.493 377.172 520.63 381.535C520.328 383.063 520.005 384.686 519.688 386.288C517.523 385.906 515.516 384.902 513.912 383.399C511.912 381.653 510.404 379.414 509.536 376.905C509.685 376.142 509.809 375.484 509.903 374.98Z" fill="#BC996F"/>
<path d="M518.243 346.461C516.492 346.326 514.735 346.615 513.12 347.304C511.505 347.992 510.08 349.061 508.965 350.418C505.39 355.031 501.541 369.299 510.418 377.056C519.295 384.814 528.071 376.029 529.377 366.724C530.684 357.419 531.179 346.125 518.243 346.461Z" fill="#BC996F"/>
<path d="M531.998 366.585C530.938 368.641 529.16 369.783 528.024 369.129C526.887 368.475 526.829 366.283 527.888 364.226C528.946 362.169 530.727 361.028 531.861 361.682C532.995 362.337 533.058 364.53 531.998 366.585Z" fill="#BC996F"/>
<path d="M518.88 344.935C518.88 344.935 511.262 358.504 505.811 359.131C500.359 359.758 499.643 366.967 499.643 366.967C499.643 366.967 501.591 350.354 506.987 347.151C510.629 345.207 514.782 344.434 518.88 344.935Z" fill="#184655"/>
<path d="M468.5 676.406C461.432 677.693 456.727 673.567 454.281 670.476C452.484 673.977 451.607 679.2 452.928 682.074C454.092 684.608 457.497 684.535 460.173 684.633C461.507 684.66 462.821 684.304 463.96 683.609C465.099 682.913 466.016 681.907 466.601 680.707C467.376 679.341 468.013 677.9 468.5 676.406Z" fill="#B75742"/>
<path d="M528.775 675.407C523.266 676.993 517.391 676.763 512.023 674.75C511.192 677.097 510.092 680.041 510.676 681.74C511.391 683.819 512.408 684.289 513.303 684.313C520.412 684.499 539.344 684.753 544.761 684.823C544.93 684.825 545.096 684.778 545.239 684.688C545.382 684.599 545.497 684.47 545.569 684.317C545.641 684.164 545.668 683.993 545.646 683.826C545.624 683.658 545.555 683.5 545.446 683.371C544.107 681.767 529.355 675.76 528.775 675.407Z" fill="#B75742"/>
<path d="M507.241 362.54C507.684 364.95 506.793 367.159 505.249 367.475C503.705 367.792 502.096 366.094 501.653 363.685C501.21 361.275 502.101 359.066 503.644 358.749C505.187 358.433 506.797 360.131 507.241 362.54Z" fill="#BC996F"/>
<path d="M480.907 369.42C480.907 369.42 500.005 389.917 502.845 398.176C505.684 406.435 500.076 418.252 492.337 418.768C484.598 419.285 467.361 382.39 467.361 382.39L480.907 369.42Z" fill="#A43A57"/>
<path d="M502.592 110.307L481.024 115.004C479.793 115.271 478.523 115.294 477.284 115.071C476.045 114.848 474.862 114.383 473.803 113.702C472.743 113.022 471.829 112.139 471.11 111.105C470.392 110.071 469.885 108.906 469.617 107.676L467.607 98.446C467.066 95.9617 467.535 93.3643 468.909 91.2252C470.283 89.0861 472.451 87.5805 474.935 87.0396L496.502 82.3431C497.732 82.0752 499.003 82.0522 500.242 82.2754C501.481 82.4986 502.663 82.9637 503.723 83.6441C504.782 84.3244 505.697 85.2067 506.415 86.2407C507.133 87.2746 507.64 88.4398 507.908 89.6699L509.918 98.9006C510.186 100.131 510.209 101.401 509.986 102.64C509.763 103.879 509.298 105.062 508.618 106.121C507.937 107.181 507.055 108.095 506.021 108.814C504.987 109.532 503.822 110.039 502.592 110.307Z" fill="#50BFA5"/>
<path d="M469.818 102.655L460.58 117.588L474.757 111.486L469.818 102.655Z" fill="#50BFA5"/>
<path d="M480.255 98.4894L483.85 97.61C483.85 97.61 487.634 93.1854 487.505 91.953C487.376 90.7207 486.055 88.3473 486.689 87.8688C487.18 87.4697 487.808 87.2787 488.439 87.3365C489.069 87.3943 489.652 87.6965 490.062 88.1783C491.009 89.1777 491.388 93.52 491.876 93.705C493.197 93.6095 494.504 93.3799 495.779 93.0198C496.267 92.9062 496.777 92.9288 497.254 93.085C497.73 93.2413 498.155 93.5253 498.481 93.9061C498.7 94.1606 498.824 94.4826 498.833 94.8179C498.843 95.1533 498.737 95.4817 498.534 95.7483L497.879 96.6027L498.703 97.3016C498.998 97.5515 499.182 97.9081 499.215 98.2934C499.247 98.6787 499.126 99.0613 498.877 99.3575L498.351 99.9868L498.898 100.384C499.065 100.505 499.204 100.66 499.307 100.838C499.41 101.017 499.474 101.215 499.495 101.42C499.516 101.625 499.493 101.832 499.428 102.027C499.364 102.223 499.258 102.402 499.12 102.554L498.643 103.077L498.757 103.214C498.999 103.49 499.128 103.845 499.12 104.211C499.112 104.577 498.967 104.926 498.714 105.19L498.231 105.694L488.653 108.034C487.756 108.253 486.823 108.287 485.912 108.132L482.407 108.399C482.225 108.412 482.044 108.36 481.898 108.251C481.751 108.143 481.648 107.986 481.607 107.808L479.686 99.3951C479.643 99.1998 479.679 98.9954 479.785 98.826C479.892 98.6566 480.06 98.5357 480.255 98.4894Z" fill="white"/>
<path d="M570.115 0.970772C589.435 4.56849 603.306 17.1068 601.096 28.9758C599.99 34.9149 595.075 39.5531 588.02 42.2634L592.602 61.2228L578.635 44.5477C573.129 45.1959 567.557 44.9952 562.112 43.9526C542.79 40.3549 528.92 27.8166 531.13 15.9487C533.34 4.0808 550.794 -2.62694 570.115 0.970772Z" fill="#96CFF1"/>
<path d="M834.975 348.727L830.701 349.161L829.244 342.362L822.916 342.226L820.993 337.315L818.508 338.288L821.08 344.855L827.076 344.984L828.592 352.058L835.023 351.405L834.975 348.727Z" fill="#50BFA5"/>
<path d="M800.033 265.117L790.034 260.737L787.762 267.641L784.45 266.553L787.919 256.01L797.855 260.364L800.391 252.196L809.539 256.009L813.299 247.974L816.454 249.45L811.28 260.507L802.583 256.883L800.033 265.117Z" fill="#86B1F2"/>
</g>
<defs>
<clipPath id="clip0_1563_124">
<rect width="900" height="684.823" fill="white"/>
</clipPath>
</defs>
</svg>
