<svg width="64" height="64" viewBox="0 0 64 64" fill="none" xmlns="http://www.w3.org/2000/svg">
<path d="M60.9274 49.2166C61.3432 47.1637 59.9564 45.1178 57.9985 44.637V34.6151C58.2877 34.7217 59.6816 35.5523 59.9985 35.4951C61.0107 35.5365 61.381 34.023 60.4485 33.6051C60.4485 33.6051 46.4485 26.6051 46.4485 26.6051C46.117 26.419 45.7224 26.4831 45.4085 26.6751L43.9985 27.3851V17.6132L45.5512 18.3896C46.0349 18.6335 46.6446 18.4414 46.893 17.9423C47.1401 17.4482 46.9399 16.8476 46.4458 16.6005L32.5188 9.63705C32.1568 9.46719 31.8402 9.46719 31.5645 9.59744C31.4782 9.63705 17.5512 16.6005 17.5512 16.6005C17.0571 16.8476 16.8569 17.4482 17.104 17.9423C17.352 18.4365 17.9516 18.6347 18.4458 18.3896L19.9985 17.6132V27.3851L18.5885 26.6751C18.2731 26.484 17.8816 26.4181 17.5485 26.6051L3.54849 33.6051C2.39743 34.1957 3.25131 35.964 4.44858 35.385C4.44852 35.3851 5.99851 34.6151 5.99851 34.6151V44.637C4.04069 45.1176 2.65372 47.1639 3.06962 49.2166C0.951032 50.9086 2.24253 54.5529 4.99864 54.495C4.99852 54.4951 58.9985 54.4951 58.9985 54.4951C61.7349 54.555 63.0629 50.9093 60.9274 49.2166ZM45.8229 28.7029L45.9985 28.6351L46.1741 28.7029L55.9985 33.6151V44.6416C55.3545 44.8122 54.7522 45.1293 54.2592 45.5976C52.9467 45.9296 51.9985 47.1152 51.9985 48.4951H50.9985V42.4951C50.9985 40.289 49.2046 38.4951 46.9985 38.4951H44.9985C42.7925 38.4951 40.9985 40.289 40.9985 42.4951V48.4951H35.9985V33.6106C38.4641 32.372 43.3223 29.9592 45.8229 28.7029ZM26.9985 25.4951C26.9985 23.2851 28.7885 21.4951 30.9985 21.4951H32.9985C35.2085 21.4951 36.9985 23.2851 36.9985 25.4951V30.8851C36.1801 31.2862 32.8746 32.9461 31.9985 33.3851C31.1029 32.9363 27.8348 31.2951 26.9985 30.8851V25.4951ZM33.9985 34.6151V48.4951H29.9985V34.6151C30.3816 34.7645 31.5915 35.5141 31.9985 35.4951C32.403 35.5106 33.6219 34.7635 33.9985 34.6151ZM7.9985 33.6151L17.8229 28.7029L17.9985 28.6351C20.6158 29.8935 25.43 32.3393 27.9985 33.6106V48.4951H22.9985V42.4951C22.9985 40.289 21.2046 38.4951 18.9985 38.4951H16.9985C14.7925 38.4951 12.9985 40.289 12.9985 42.4951V48.4951H11.9985C11.9985 47.1152 11.0503 45.9297 9.73776 45.5976C9.24478 45.1293 8.64248 44.8122 7.9985 44.6416V33.6151ZM58.9985 52.4951H4.99849C3.70503 52.478 3.6675 50.5196 4.99855 50.4951C4.99849 50.4951 58.9985 50.4951 58.9985 50.4951C60.292 50.5122 60.3295 52.4705 58.9985 52.4951Z" fill="#7BB059"/>
</svg>
